<?xml version='1.0' encoding='utf-8'?>
<svg xmlns="http://www.w3.org/2000/svg" viewBox="0 0 841.9 595.3"><path d="m184 321.5 29-37 8.7 63.4-15.7 38.6z" fill="#ece200" fill-rule="evenodd"/><path d="m226 205.5 60-21 16 57-52 22z" fill="#74c5bf" fill-rule="evenodd"/><path d="m271.8 447-1.8-23.4 30.3-10.2 3.6 6 14.3-2.6-39.3-11.9-51.9 16.6 3 46 71 51.7 51.7-35.5 1.3-58.3-21-6.8 3.4 19-40.9 24.1z" fill="#7ac191" fill-rule="evenodd"/><path d="m625 301.5s23 12 29 20-15 64-15 64-4-6-13-17-20-18-15-30 14-37 14-37z" fill="#74c5bf" fill-rule="evenodd"/><path d="m443.2 156.5-.6-13.8 8.1-1.3 15.7-11.2 3.1 36.3-11.9-9.4z" fill="#ece200" fill-rule="evenodd"/><path d="m598 199.4c-4.7-3-12.4-5.2-20-.9-7.8 4.4-11.4 11.4-12.3 19.7s-.3 15.9 12 23.1 25.5-1.2 30.8-16.1-4.8-22.2-10.5-25.8zm-23.4 24.2 8.6-20.9 13.4 17.5z" fill="#7ac191" fill-rule="evenodd"/><path d="m522.6 163.9c-2 .1-3.9.3-5.9.4-1 0-1.6.5-1.4 1.6.1.4 0 .9-.1 1.3-.5-.2-.9-.3-1.3-.5-4.4-2.6-8.7-5.2-13.1-7.9-1.8-1.1-3.6-2.3-5.4-3.4-1.1-.7-1.4-1.6-1.2-2.9 1-6.1 1-12.3.9-18.5 0-1.6.3-3.2.5-4.8.2-1.8.6-3.5.8-5.3.2-1.5-.4-2.1-2-2s-3.2.5-4.8.6c-4.2.4-8.5.9-12.7 1.2-5.8.4-11.5.6-17.3 1-1.2.1-1.9-.2-1.9-1.6 0-2.3 0-4.6-.1-6.9-.1-3.3-.7-6.7-.4-10 .3-3.2-.1-6.3-.2-9.5 0-1-.1-2 0-3 .2-1.8-.2-2.3-2.1-2-1 .1-2.1.1-3.2 0-2.3-.2-4.5-.6-6.8-.7-4.3-.2-8.7-.4-13-.6-2.8-.1-5.6-.2-8.4-.3-3.2-.2-6.3-.4-9.5-.6-2.1-.2-4.1-.5-6.1-.6-2.2-.1-4.4 0-6.6.1-3.6.1-7.2.3-10.7.5-1.9.1-1.7.3-1.6 2.1.2 3.1.3 6.2.5 9.3.3 4 .6 8 .9 12.1s.7 8.2.9 12.4c.1 1.3-.1 2.6-.1 3.8 0 2.4 0 4.8.1 7.2 0 1 .1 2.1.1 3.1 0 .5-.2.9-.4 1.4-.2.7-.6 1.5-.4 1.9.2.5 1.1.8 1.8.8 2.1.2 4.3.2 6.4.5 4.8.8 9.6 1.7 14.4 2.6 4.5.8 8.9 1.7 13.4 2.3 1.1.2 1.3.5 1.4 1.5.1 3.1.1 6.2.7 9.2 1.1 5.7 1.7 11.5 2.1 17.3.1 1.6.2 1.7 1.8 1.6.7-.1 1.4-.2 2.2-.3 2.5-.3 5-.7 7.5-.8 3.6-.1 7.1.1 10.7-.7 2.7-.5 5.5-.4 8.2-.7 2.2-.2 4.4-.6 6.6-.9 1.8-.2 3.6-.3 5.3-.5 3.8-.5 7.6-1.1 11.5-1.5 2.3-.3 4.6-.2 6.9-.3 1.8-.1 2.6-.6 2.6-2.1.1-1.3 0-2.6-.1-3.9 0-2.7-.2-5.4-.1-8 0-1.7.2-1.7 1.6-.8l12.3 7.5c2.2 1.4 4.4 2.7 6.4 4.3.9.7 1.7 1.7 1.9 2.8.4 1.4.3 2.9.3 4.3-.1 3.2-.4 6.4-.6 9.5-.1 2 .2 2.2 2.2 2.5 1.3.2 2.7.4 3.9.8 3.2.9 6.4 1.9 9.7 2.7 3.6.9 4.1.5 4.1-3.3 0-5.8.7-11.5 2-17.1.3-1.1.7-2.2.9-3.4.3-1.5-.1-2-1.6-2.2-.6-.1-1.2-.2-1.8-.4-4-1.3-8.2-2.6-12.6-2.2zm-291.8 45.3c.4.8.6 1.3.9 1.8s.7 1 .9 1.6c1.3 3.2 2.5 6.4 3.8 9.5.6 1.4 1.2 2.9 1.9 4.3 1.1 2.2 2.4 4.3 3.5 6.5 1.5 3.1 2.9 6.2 4.2 9.3.4 1 .6 2 1 3 2 4.4 4.1 8.7 6.2 13 .5 1 .9 1.9 1.5 2.8.2.3.9.6 1.1.5 1.4-.6 2.7-1.2 4.1-1.9 2.9-1.5 5.7-3.1 8.6-4.5 1.8-.9 3.7-1.6 5.5-2.4.7-.3 1.3-.8 2-1.1 1.6-.6 3.2-1 4.8-1.6 3.9-1.6 7.8-3.2 11.6-5 1.8-.8 3.5-1.9 5.2-2.9.8-.5.9-1.2.5-2-.9-1.7-1.9-3.4-2.6-5.2-1.6-4-3.2-8-4.6-12-1.4-4.2-2.6-8.5-3.8-12.8-.5-1.8-.8-3.7-1.1-5.6 0-.2 0-.4 0-.5.6-1.1 1.2-2.3 1.9-3.3 1.7-2.6 4.4-4.1 6.6-6.1.6-.5 1.4-.9 2.1-1.3 2.1-1.2 4.3-2.4 6.4-3.6.9-.5 1.1-1.2.7-2.3-1.2-3.4-2.4-6.8-3.5-10.3-1.4-4.5-2.1-9.3-4.1-13.6-.6-1.2-1.1-1.2-2.1-.8-3.9 1.6-7.9 2.7-11.6 4.8-3.8 2.1-8 3.4-12 5.2-2 .9-4 1.7-5.9 2.7-.9.4-1.1 1.2-.8 2.3 1.2 3.6 2.4 7.2 3.4 10.8 1.1 3.9 1.3 3.3-2.6 4.5-2.9.9-5.8 1.9-8.7 3-1.2.4-2.2 1.1-3.4 1.5-2.8 1.1-5.5 2.1-8.3 3.1-4.4 1.7-8.2 4.2-12 7-.3.3-.7 1-1.3 1.6zm83.1-64.2c-.3-.7-.4-1.2-.6-1.6-1.6-4.5-3.4-8.9-4.3-13.6-.5-2.6-2.6-3.9-4.1-5.6-.2-.3-1-.4-1.4-.2-2.3 1.1-4.9 1-7.3 2.2-4.1 2.1-8.4 3.6-12.6 5.4-5.3 2.2-10.5 4.3-15.8 6.5-5.4 2.2-10.7 4.7-16.3 6.6-3.5 1.2-6.7 3-10.2 4.3-1.5.6-3 1.1-4.5 1.7-4 1.7-8 3.5-12 5.2-1.6.7-2.1 1.8-.9 3.1 1.9 1.9 3.1 4.2 4.2 6.6 1.9 4 3 8.2 3.3 12.6.1 1.7.9 2.4 2.5 2 1.1-.3 2.2-.8 3.2-1.3s2-1.2 3-1.7c4.3-2.2 8.5-4.6 12.8-6.6 3.7-1.8 7.5-3.5 11.5-4.7 5.6-1.7 11-4 16.4-6.3 3.7-1.5 7.3-3.2 10.9-4.8 1.6-.7 3.2-1.4 4.8-2.1 1.9-.8 3.7-1.8 5.6-2.5 3.5-1.4 7-2.7 10.5-4.1.5-.2.9-.8 1.3-1.1zm310-27.4c-.1.3-.2.6-.3.9-1.6 6.1-3.3 12.2-4.9 18.3-.5 2-.5 2 1.3 2.7 2.5 1 5.3 1.7 7.6 3 6.7 3.8 14 6.1 21.1 9 4 1.6 8.1 3.1 11.8 5.6 1.8 1.3 3.9 2.3 6 3 3.9 1.3 7.6 2.9 10.9 5.5.4.3 1.2.4 1.8.3 1.1-.1 1.5-1.2 2.1-2 1.6-2.3 3.2-4.6 4.8-6.9 1.8-2.6 3.5-5.2 5.2-7.8.5-.8 1-1.7 1.3-2.7.1-.3-.1-.9-.3-1.1-1.2-1-2.4-2.2-3.8-2.7-2.3-.8-4.4-1.9-6.4-3.3-.8-.5-1.6-1.1-2.4-1.5-3.7-1.7-7.3-3.3-11-4.9-1.3-.6-2.6-1.1-3.8-1.7-3.9-1.9-7.8-3.9-11.7-5.9-2.2-1.1-4.4-2-6.5-3-1.1-.5-2.2-1.1-3.3-1.6-1.5-.7-3-1.4-4.6-2.1-1.7-.8-3.3-1.6-5-2.3-2.3-.9-4.7-1.7-7-2.7-1.6-.7-3.2.3-3.1 2-.1.9.1 1.4.2 1.9zm-223-60.4c-1.5.1-3.6.3-5.6.4-1.1.1-1.6.5-1.6 1.6 0 1.7.2 3.4.1 5-.2 3.8-.6 7.6-.9 11.4-.3 3.2-.1 3.4 3 3.3 6.7-.1 13.4-.2 20.1-.3.8 0 1.6-.1 2.3 0 1.8.1 3.6.4 5.4.3 4.8-.1 9.5-.4 14.3-.4 4.5 0 9 .2 13.4.3 3.4.1 6.7.3 10.1.4.8 0 1.5 0 1.5-1.1.1-4.5.3-8.9.4-13.4 0-1-.3-2-.1-2.9.4-1.8.1-2.5-1.6-2.5-1.7-.1-3.4 0-5 0-3.4 0-6.8-.1-10.2-.2-3.2-.1-6.5-.4-9.7-.6-3.9-.2-7.8-.3-11.7-.5-2.2-.1-4.3-.2-6.5-.3-2.6 0-5.2.2-7.8.1-3.2-.1-6.3-.4-9.9-.6z" fill="none"/><path d="m643.8 268.6c-.1.9-.2 1.9-.3 2.8-.6 4.8-2.1 22-2.3 25.9-.2 4.1-.3 8.3-.9 12.4-.4 2.7.8 4.3 2.7 5.8 1.3 1 2.5 2.3 3.4 3.6 3 4.1 5.7 8.4 7.7 13.1.5 1.2.8 2.5 1 3.7.1.8 0 1.8-.4 2.4-2 3.3-2.9 6.9-3.6 10.6-.8 4.1-1.8 8.2-3.4 12.1-2.5 6.2-4.7 12.6-7 18.9-.1.2-.4 2.4-1.3 2.5s-1.2-1.2-1.5-1.9c-1.1-3-2.9-5.7-4.2-8.6-2.7-5.8-6.8-10.5-11.1-15-1.8-1.9-4-3.4-6.1-5-1.8-1.3-1.9-1.6-1.3-3.7.7-2.5 1.3-5 2-7.5 1.7-6.1 3.5-12.2 5.1-18.3.9-3.4 1.4-6.8 2.1-10.2.4-2 .6-4 .8-6 .2-1.4.5-1.8 1.8-1.3 2.2.8 4.4 1.6 6.2 3.2 1.1 1 2.5 1.8 3.8 2.8.8.6 1.1.2 1.1-.6.2-3.5.5-7 .7-10.6.3-5.2.5-10.5.8-15.7 0-.7 2.6-19.2 2.8-21.7.2-1.7.1-3.5.1-5.2.2-5.2.5-10.4.6-15.6.1-2.7-.1-5.5 0-8.2 0-1.4-.8-2.2-1.9-2.7-1.8-.7-13.3-7.2-16.3-8.4-2-.8-2.6-.4-3.6 1.6-1 2.2-13.4 29.5-15.9 35.5 0 .1-.1.2-.1.3-.3.8-.5 1.7-.8 2.6-.7 2-2 3.2-3.9 1.3-.7-.7-8.6-5.4-11.7-7.2-2.1-1.2-23.9-10.7-27.4-12.3-1.1-.5-5.9-2.6-7.6-3.6-2.1-1.3-2.5-1.8-4.4-.3-2.4 1.9-5.6 3.7-8.1 5.6-4 3.1-19.7 15.1-22.7 17.2-2.9 2.1-28.3 21.8-29.6 22.9-2.8 2.3-5.5 4.7-8.2 7.1-.7.6-1.5 1.1-2.3 1.7-1.8 1.3-3.6 2.7-5.3 4.1-.4.4-.7 1.1-.8 1.7-.4 4.3-.7 8.7-1 13.1-.2 2.1.3 2.7 2.4 3 2 .3 4 .4 6 .6 5.2.5 10.5.7 15.7 1.4 4 .5 8 1.5 12 2.3 3.9.8 7.8 1.5 11.7 2.5 3.3.8 6.5 1.8 9.7 2.8 5.3 1.7 10.6 3.6 15.9 5.4 2.9 1 5.8 2.1 8.7 3 5.9 1.8 11.2 4.8 16.6 7.7 3.1 1.7 6.3 3.1 9.5 4.6 2.6 1.3 5.3 2.4 7.7 4.1 2.7 1.8 5.2 4.1 7.7 6.3 2.1 1.9 4.2 3.9 6.1 5.9 2 2.1 3.8 4.4 5.7 6.6.8 1 1.5 2.1 2.4 3 3.1 3.1 5.4 6.7 7 10.7.3.6.5 1.3.6 1.9.4 2.8 1 5.6 1.1 8.5.2 7.1-.9 13.9-3.7 20.5-1.7 4-4.1 7.6-7.1 10.6-2.8 2.9-5.7 5.8-8.7 8.4-3.7 3.1-7.5 6.2-11.5 8.9-5.8 3.9-11.9 7.4-18.3 10.1-3.6 1.5-6.9 3.7-10.4 5.4-4.1 2-8.2 3.9-12.4 5.7-5.6 2.3-11.3 4.6-17.1 6.6-3.9 1.4-8 2.2-12 3.3-2.4.7-4.9 1.3-7.3 2-6.2 1.6-12.4 3.4-18.7 4.6-6.6 1.3-13.3 2.6-20.1 2.9-7.9.3-15.9 1.1-23.8 1.7-5.7.4-11.5.6-17.2 1.2-8.6.9-17.2.4-25.8.4-9.1 0-18.2-.6-27.3-.9-5.8-.2-11.5-.6-17.3-.9-1.2-.1-2.4-.3-3.7-.4-.4 0-.9.1-1.2.3-1.5 1.2-2.8 2.6-4.3 3.6-4.6 3-9.1 6-13.8 8.6-5.3 2.9-10.7 5.3-17 8.7-3.2 1.7-6.2 3.8-9.3 5.6-2.6 1.5-5.2 2.8-7.8 4.2-1.7.9-3.1.1-4.2-.9-3.1-2.8-6.7-4.9-10.1-7.2-4.1-2.9-8.3-5.7-12.5-8.5-2.3-1.5-4.5-3.2-6.8-4.6-3.5-2.3-7.2-4.3-10.7-6.6-2.7-1.8-5.2-3.9-7.7-5.9-1.7-1.3-3.4-2.6-5.1-3.9-1.9-1.4-3.7-2.9-5.5-4.3-2.1-1.6-2.5-1.8-4.6-3.3-1.3-.9-2.5-2.6-2.4-5.5.1-3.4-.2-14.7-.2-18.1 0-1.6-.5-2.6-2-3.5-4-2.6-6.7-6.4-7.8-11.1-.4-1.7-.9-3.5-1-5.3-.3-5.3-.5-6.8 1.6-15.6s8.8-21.1 17.6-27.7c6.8-5.1 16.9-11.9 19.1-13.5.9-.7 31.2-17.5 36.3-20.1 4.2-2.2 8.6-4 12.9-6 .7-.3 1.3-.9 1.6-1.6 1.4-2.4 2.6-4.9 4-7.4 1.3-2.3 2.7-4.6 4-7 1.2-2.3 2.2-4.6 3.4-6.9.3-.6.6-1.2.8-1.8.4-1.4 1.1-2.9 1.1-4.3.1-7.3 0-14.7.1-22 0-2 .4-4 .4-6 0-5.1-.2-10.3-.1-15.4 0-4.1.3-8.2.5-12.2.2-3.7.5-7.4.4-11.2-.2-4 .1-8.1.3-12.1.1-1.7 1.9-3.2 3.5-3.8 3.5-1.2 7.1-.9 10.6-1.4 5-.7 10.1-1.5 15.1-2.3 3.6-.6 7.1-1.4 10.7-2 5.3-.8 10.5-1.5 15.8-2.1 5.8-.7 11.7-1.1 17.5-1.8 4.4-.5 8.7-1.5 13.1-2.1 5.2-.6 10.4-1 15.5-1.6 5.6-.6 11.1-1.4 16.7-2 2.9-.3 5.9-.4 8.9-.7 3.1-.3 6.2-.6 9.3-1 1.3-.2 2.3.4 3.2 1.2 2.5 1.9 4.9 3.8 7.4 5.7 1.2.9 1.5 2.3 1.3 3.6-1 5.6-.8 11.2-1 16.8-.1 3.2-.3 6.4-.3 9.6.1 3.8.3 7.6.5 11.4.2 3.9-.4 7.8-.5 11.8-.1 2.8-.3 5.6-.4 8.4-.1 3.6-.2 7.2-.1 10.7 0 2.4.6 1.6 2.4.2 2.9-2.2 7.3-5.9 10.1-8.1 2.3-1.8 28.1-22.2 31-24.3 4-2.9 19-14.4 23.1-17.6.9-.7 6.4-4.3 7.8-5.3.6-.5.8-.8 0-1.2-1.1-.5-2.2-1.2-3.3-1.6-1.4-.6-1.6-1.7-.8-3 1-1.6 5.2-11.4 6.5-14.5 2-4.6 4.1-9.2 6.2-13.8 0-.1.1-.2.1-.3 1.4-3 10.2-20.3 13.1-26 .4-.8.8-1.7 1.1-2.6.6-1.8 2.7-2.7 4.3-1.7 3 1.9 14.8 5.6 17.2 6.4 3.1 1 14.3 4.3 16.9 5 1 .3 1.5.4 1.8-1 .5-2.2 4.8-21.6 5.6-25.8.4-2.1.9-4.3 1.3-6.4.1-.4 0-.8-.1-1.1 0-.5-.3-1.4-.1-1.5.6-.3 1.4-.6 2-.4 2.1.6 4.2 1.3 6.1 2.3 4.7 2.2 9.4 4.6 14.1 7 3 1.6 18.1 11.4 19.7 12.9 2.4 2.3 7.9 7.9 8.2 8.5 1 1.7 2 3.5 3.1 5.1.7 1 1 1.7.4 2.9-.9 1.8-7.2 21.9-7.6 23.5-2 7.4-4.1 14.8-6.2 22.2-.5 1.9-1.2 3.8-1.9 5.7-.4 1.1-1.1 1.4-2.1.7-1.6-1.3-3.1-2.7-4.7-4 0 0-.1-.1-.1-.1-.8-.5-1.5-1-2.3-1.5-.2.8-.4 1.6-.5 2.4.5 1.4-.6 28-1 31.8zm-205.8 102.8c-.6 0-1.6.5-1.7 1-.4 2.5-.7 5.1-.8 7.7-.1 2.7.2 5.3.2 8-.1 6.3-.4 12.5-.4 18.8 0 6.5.1 13.1.3 19.6.1 2.6.6 5 3.1 6.7 3.3 2.3 6.5 5 9.6 7.6.3.3.6 1.1.4 1.4-.2.4-.9.7-1.3.7-.5 0-1-.4-1.4-.8-1.7-1.6-3.3-3.3-5.1-4.8-1.4-1.1-3.2-1.9-4.7-3-1.1-.8-2.7-1.5-2.8-3.1-.3-5-.7-10-.6-14.9 0-6.7.5-13.4.7-20.1.1-5.4 0-10.7.1-16.1 0-2.1.3-4.2.4-6.4.1-1.8.1-1.9-1.6-1.8-3 .2-5.9.4-8.9.6-4.5.4-8.9.7-13.4 1.1-4.2.4-8.5.8-12.7 1.2-1.9.2-1.9 0-1.8 2 .4 6.3.8 12.6 1 18.9.1 4-.1 7.9-.2 11.9-.1 2.6-.2 5.1-.5 7.7-.5 5.1-.9 10.3-.6 15.4 0 1 .3 1.7 1.2 2.2 4.5 2.6 8.4 6.4 13.3 8.4.7.3 1.2.9.7 1.6-.3.5-1.1.8-1.7.9-.3.1-.7-.4-1.1-.7-4-2.7-7.9-5.6-12.1-7.9-2.1-1.1-3.2-1.9-2.8-4.4.7-5.5.7-11.2 1-16.7.5-8.1 1.3-16.2.7-24.3-.3-4.6-.7-9.1-1.1-13.7-.1-1-.2-1.2-1.1-1.1-1.3.1-2.7.2-4 .2-2.2.1-13.7 1.1-17.2 1.1-5.7 0-27-1-31.8.4-.3.1-7.1-2.6-9.8-4.5-2.1-1.5-4.3-2.7-4.3-5.8-.1-5.8-.5-11.6-.4-17.4.1-2.3-.2-4.6-.3-6.8 0-1.1-.4-1.2-1.4-.9-3.5 1.1-7 2-10.5 3.1-.5.2-1.1.6-1.4 1.1-1.4 2.8-2.7 5.8-4.1 8.6-2.7 5.5-5.4 10.9-8.2 16.3-2.3 4.4-4.7 8.8-7 13.2-.1.3-.5 1.1-.6 1.4.3 0 3.5-1.3 4.5-1.6 4.3-1.4 8.5-2.9 12.8-4.2 2.4-.7 2.6-.4 2.7 2v.8c0 4.8 0 9.6.2 14.4.2 5.1.8 10.3 1.1 15.4.1 1 .4 1.1 1.3 1.3 1.1.2 2.6.4 3.2 1.2 1 1.3 1.7 1 2.8.5.3-.2.7-.3 1.1-.4 3-.6 5.7-2 8.1-3.9.9-.7 2.3-.3 2.5.8.3 1.8.3 3.7.5 5.6 0 .3.3.7.5.8 2.7.6 5.4 1.1 8.1 1.8 3.6.9 7.1 2 10.6 3 .3.1.6.1.8.1 2.7.2 4.2 2.4 4 5.1-.3 3.2-.8 6.4-.6 9.6.3 4.4.1 8.7-.1 13-.2 3.8-.4 7.6-.9 11.4-.8 6-.7 12.1-.8 18.1 0 .8.2 1.3 1.1 1.4 1.3.2 2.5.5 3.8.6 7.9.5 15.9 1 23.8 1.5 4.2.3 8.5.6 12.7.7 4.7.1 9.4-.2 14.1 0 8.9.3 17.8.2 26.7-.4 1.8-.1 3.7-.1 5.5-.3 2.7-.3 5.3-.7 8-1 4.5-.4 9-.7 13.5-1.1 4.1-.3 8.2-.4 12.2-.9 5.3-.6 10.7-1.3 15.9-2.4 4.5-.9 9-2.3 13.5-3.5 6.1-1.6 12.3-3.1 18.3-4.8 4.5-1.3 9-2.8 13.4-4.4 4.5-1.7 8.8-3.5 13.2-5.4 4.1-1.8 8.1-3.7 12.1-5.7 3.4-1.7 6.8-3.6 10.2-5.3 1.7-.9 3.5-1.5 5.1-2.5 3.8-2.3 7.5-4.7 11.1-7.3 2.7-1.9 5.2-4.3 7.9-6.3 4.3-3.2 8-7 11.6-10.9 1-1.1 2-2.3 2.6-3.7 1.5-3.3 2.9-6.6 4.1-10 1.4-3.8 1.3-7.8 1.6-11.8.2-2.9-.4-5.8-.9-8.7-.5-3.1-1.7-6-3.6-8.6-2.7-3.6-5.5-7.2-8.3-10.8-1-1.3-2-2.7-3.3-3.8-3.1-2.9-6.2-5.6-9.4-8.4-1.6-1.3-3.1-2.7-4.9-3.8-3.2-1.9-6.4-3.6-9.7-5.3-2.8-1.5-5.7-2.8-8.6-4.2-3.9-1.8-7.8-3.7-11.8-5.3-4.2-1.7-8.4-3-12.7-4.4-4.5-1.6-8.9-3.3-13.5-4.7-3.5-1.1-7-2-10.5-2.8-5.2-1.3-10.4-2.6-15.7-3.7-4-.8-8.1-1.3-12.1-1.7-5.7-.6-11.4-1-17.1-1.4-.3 0-.6.1-.8 0-.9 0-1.3.2-1.4 1.2-.2 5.6-.5 11.2-.6 16.8-.1 2.3.2 4.7.4 7.1.6 8.2 1.3 16.3 1.9 24.4 0 .6 0 1.2-.1 1.8 0 1-.5 1.4-1.5 1.3-2.2-.1-4.5-.1-6.7-.2-2.8.2-24.8.2-26.8.3zm30.3-2c2.4.2 2.7-.1 2.6-2.6-.1-2.2-.2-4.4-.4-6.5-.5-6.9-1.7-30.7-1.5-35.8.2-5.3 1.3-23.2 1.4-26.8.1-3.8.1-7.6.2-11.4.1-3.4.1-6.8.2-10.2.2-5.8.2-21.6.2-23.7 0-3.5.2-7 .4-10.6.2-4.8.4-9.5.6-14.3.1-1.1-.3-1.5-1.4-1.4-1.8.2-17.2.7-23.1 1.2-8.4.8-32.4 2.7-36 3.1-4.1.4-18.8 1.7-22.1 1.9-3.1.2-6.2.6-9.4 1-5.3.6-10.7 1-16 1.9-6.8 1.1-13.6 2.4-20.3 3.7-1.8.3-3.6.7-5.4 1-.3.1-1.6-.3-1.6.6.1 2.8.3 8.2.4 11 0 12.4.8 28.2.5 32.8-.2 4.8-.6 24.5-.5 30.1.1 3.1.3 6.1.5 9.2.2 3.6 1.1 19.8 1.6 24.3.3 3.1 2.3 18.5 2.9 23.2 0 .4.2.8.3 1.1.4 1.1 1 1.7 2.5 1.7 3.2-.2 30.8.7 36.3.2 1.9-.2 7.6-.8 8.6-.9 1.9-.1 42.1-2.9 48.8-3.6 1.4-.3 29.3-.2 29.7-.2zm-170.5 95.4c-.2-1.5-1.1-2.5-2.3-3.1-2.6-1.4-5.2-2.6-7.8-3.9-2.9-1.4-5.7-2.8-8.6-4.2-3.7-1.9-7.4-3.9-11.2-5.8-3.9-2-7.8-3.9-11.7-5.8-2-1-3.9-2.4-5.9-3.1-5.3-2-10.1-5-14.9-7.9-1.1-.7-1.9-.4-2 .9-.1.9.1 1.9.1 2.8 0 1.7-.3 3.4 0 5 1.1 5.5.9 11 1.3 16.6.1 1.3 0 2.7 0 4 0 1.8-.1 3.7-.1 5.5 0 .5.4 1.1.8 1.5.9.7 2 1.3 2.9 2 4 3.2 7.9 6.5 12 9.6 3.3 2.5 6.8 4.8 10.2 7.1 3.1 2.2 6.2 4.4 9.4 6.4 3 2 6.3 3.6 9.3 5.7 5.4 3.7 10.7 7.5 16.1 11.2.9.6 1.8 1.3 2.7 2 .6.5 1.1.6 1.2-.5 0-.3.1-.7.1-1-.2-2.4-.1-5.6-.2-8-.2-3.9-.8-5.4-.8-9.3.1-2.7-.3-24.8-.6-27.7zm369.8-277.2c-.5-1.1-1-2.3-1.6-3.6-1.7-3.5-3.9-6.8-6.8-9.3-3.7-3.2-21.3-14.2-26.1-16.9-1.5-.8-3.1-1.5-4.6-2.2-1.7-.8-3.5-1.5-5.3-2.2-.9-.3-1.8-.8-2.7-.9-.4-.1-1.2.5-1.3.9-.6 2.3-1.1 4.6-1.6 6.9-.6 3.3-3 14.4-3.5 18-.2 1.4-1.4 7.5-1.7 7.9.5.3 1 .7 1.5 1 .4.2.8.4 1.2.5 4.3 1.4 17 5.2 16.3 7.4-.5 1.5-.9 3-1.4 4.5-.5 1.7-.8 3.5-1.4 5.2-1.4 4.3-2.8 8.5-4.2 12.7-.1.3.1 1.1.4 1.2 2.7 1.4 5.4 2.7 8.1 4 .8.4 8.5 5.1 11.4 7.3 2.6 1.9 5.1 4.1 7.7 6.2.4.3.8.6 1.2.9.3-.5.6-.9.8-1.4.8-2.5 2.4-7.8 2.4-7.9 1-3.3 2-6.6 2.9-10 .8-3.1 3.4-12.9 4-14.7 1.1-3.6 2.2-7.2 3.2-10.8.4-1.4.7-2.9 1.1-4.7zm-104.4 6.2c-1.2 2.4-6.8 14.1-8.4 17.5-1.3 3-7.1 16.8-8.5 20.8-.3 1-.2 1.5.7 1.9.8.4 1.7.9 2.5 1.4s1.4.4 1.4.4 2.1-1.9 3-2.3c1.8-.8 4.7-2.2 7.6-.5.7.5 0 2.1-.9 2.4-4.5-.7-3.9.2-6.3 1.4-.5.3-.6.7 0 1 2.3 1.2 4.5 2.5 6.8 3.6 2.4 1.1 4.9 2.1 7.4 3.1.1.1.2.1.4.2 5.1 2.2 10.2 4.3 15.2 6.7 2.9 1.3 14.8 8 17.3 9.4.6.4 1 .1 1.3-.5 2.1-4.6 4.2-9.3 6.2-13.9 1.1-2.5 4.9-11.8 6-14 1.7-3.5 3.4-7.1 5-10.6.9-1.9 2-3.8 2.6-5.8 2-6.1 3.8-12.2 5.6-18.3.4-1.4.1-2.3-1.2-2.9-2.1-1-4.2-2.1-6.4-2.9-3.1-1.1-33.9-11.3-38.7-12.8-2.8-.9-5.6-1.4-8.4-2.2-.8-.2-1.3-.1-1.6.7-.2.5-.5.9-.7 1.3zm-209.7 247.8c.2-4.1.4-8.2.5-12.4 0-.4-.2-.7-.3-1.1-.3.1-.7.2-1 .4-5 3.1-49.3 29.8-52.3 32-.4.3-.7.9-.7 1.3.1 1.4 0 3 .1 4.5.3 4 .3 7.9.4 11.9.1 3.6.6 16.4.6 19.1 0 1.2.9 10.7 1.2 14.3.1.8.2.9.8.6 2.3-1.2 34.4-18.7 37-20.2 2.9-1.6 5.6-3.5 8.4-5.3 1.5-1 3.7-3.2 3.7-4.3 0-1.7-.7-7.3-.6-9 .4-4.9.9-9.8 1.3-14.7.5-5.6 1-17 .9-17.1zm-127.8-7.2c1 2.2 3.1 3.9 4.7 5.8.2.2.7.4.9.3.2-.2.5-.6.4-1-.2-2.7-.2-5.5-.6-8.2-.4-2.2-.2-4.9-.9-7-.4-1.1-.3-2 .7-2.6 1.1-.6 2.2-1.1 3.3-1.5 3.4-1.3 5.9-1.9 9.3-3.2 4.7-1.9 9.3-3.9 13.9-5.8 1-.4 1.2-1 1.2-2-.3-3.8-.6-7.6-.7-11.4-.1-2.5.5-3.1 3-3.8 8.5-2.5 17-5.1 25.4-7.7.6-.2 1.3-.4 1.3-.4s1.6-3 2.3-4.1c2.8-4.9 5.7-9.8 8.4-14.7 1.4-2.4 2.4-5 3.7-7.5 2-4 4-8 5.9-12 .1-.3.1-.6.1-.9-.3 0-.6 0-.9.1-2.3.9-4.6 1.8-6.8 2.8-5.3 2.2-36.4 19.9-39.6 21.9-2.6 1.6-14.9 10-18.3 12.8-10.4 9.4-13.6 15.8-18.4 30.7-.8 7.2-.6 13.8 1.7 19.4zm426.4-98.4c-.1-.5-.2-1-.3-1.4-1-4.4-3.3-8-6-11.5-1-1.3-1.8-2.9-2.9-4.1-1.8-1.9-3.8-3.7-5.9-5.2-2.4-1.8-5-3.2-7.5-4.8-1.6-1-1.7-.9-2.2 1-.3 1-.5 2.1-.8 3.1-.4 2.2-.7 4.4-1.2 6.6-2.1 7.6-4.3 15.1-6.3 22.7-.5 1.8-.8 3.6-1.1 5.4-.2 1 .3 1.7 1.1 2.4 2.3 2 4.6 4 6.6 6.2 2.5 2.7 4.7 5.7 7 8.6.9 1.2 1.9 2.4 2.5 3.8 1.3 2.4 2.3 5 3.5 7.5.2.3 1.2.2 1.3-.2.5-1.4.9-2.8 1.4-4.1 1.7-4.7 3.5-9.4 5.2-14.2.7-1.8 1.2-3.7 1.7-5.6.8-3.2 1.5-6.4 2.3-9.6.5-2.4 1.1-4.5 1.6-6.6zm-319.3 100.2c-.3-1.9-.5-3.8-.8-5.6-.9-5-1.8-9.9-2.7-14.9-.4-2-.5-1.9-2.4-1.2-3.1 1.3-6.3 2.6-9.6 3.5-4.1 1.1-8.3 1.8-12.2 3.7-.5.3-1.1.6-1.7.8-5.6 1.3-10.7 3.9-15.8 6.5-1.2.6-1.7 1.5-1.3 2.9.7 2.5 1.2 5.1 2.1 7.6 1.6 4.9 3.1 9.7 3.9 14.8.4 2.3 1.4 4.2 3.9 4.8.8.2 1.4.3 2.2-.2 3.9-2.6 8.4-5.1 12.4-7.6 2.6-1.6 5.5-2.9 8.2-4.3 4.2-2.3 7.5-5 11.7-7.2 1.3-.8 2.5-1.7 2.1-3.6zm-5.5-70.4c.1.8.3 1.7.9 2.3 2.6 3 6.3 4.4 9.7 6.1 1.3.6 2.2-.1 2.1-1.5-.1-1-.3-2-.4-3-.4-4-.7-7.9-1.1-11.9-1-8.7-2.1-17.4-2.9-26.2-.5-5.7-.7-11.5-1-17.3-.2-2.8.3-7.5.1-19.6-.2-12 .7-21 .6-27.2 0-3.1.3-6.2.2-9.4-.1-4.9-.4-9.8-.8-14.7-.2-2.7-1-5.1-4.1-5.9-.3-.1-.7-.2-1-.3-.9-.4-1.4-.4-1.4.7-.1 2.4-1 38.6-1 44.5-.1 6.3-.3 12.6-.5 18.9-.1 2.6-.1 5.2-.2 7.7 0 .2.2.4.3.6.1-.2.3-.3.4-.5s1.9-5.4 2.8-7.7c.3-.7.9-1.2 1.7-.8.9.4.4 1.2.2 1.8-.4.9-.9 1.8-1.2 2.8-1 2.6-1.8 5.2-2.9 7.7-.9 2.1-1.2 4.1-1.2 6.3.2 7.4.2 14.9.3 22.3-.1 7 .3 23.2.4 24.3zm-18.1 26.7h.2c-.2-2.8-.4-5.6-.6-8.4-.1-1.7-.3-1.9-1.9-1.3-4.5 1.6-16.1 5.5-16.1 5.5s-.5 2-1.2 3c-.7.9-1.4 1.1-1.6 1.1-.3 0-.6-.4-.8-.6-.1-.2-.3-1.9-.3-1.9s-3 1.2-3.9 1.5c-6.8 1.8-13.6 3.6-20.4 5.5-2 .5-2.3.9-2.2 2.9.2 2.8.6 5.6.9 8.3.1.8.5 1 1.3.8 3.4-1 6.9-1.9 10.3-3 2-.6 4-1.6 6.2-1 1.7.4 3.3 1 5 1.4 7.4 2 14.7 4 22.1 6 .9.2 1.8.3 2.6.2.4 0 .9-.6 1-1 .2-1.5.4-3.1.3-4.7-.4-4.8-.7-9.6-.9-14.3zm56.4-164.3c-4.7 1.1-9.5 1.5-14.3 2.2-6.9 1.1-13.8 2.3-20.7 3.5-.3 0-.6.3-.9.4.3.3.5.6.8.8 2.9 1.1 5.5 2.7 8.9 1.9 2.5-.6 5.1-.6 7.6-1.1 3.3-.6 15.9-2.7 18.9-3.1 3-.5 19.2-2.4 24.3-3 2.7-.3 22.9-1.2 31.4-2.8 4.3-.4 17.6-1 19.9-1.2 4.9-.4 24-1.9 28.6-2.3.3 0 .6-.2.9-.3-.2-.2-.4-.5-.6-.7-1.7-1.3-3.7-2.2-5.1-3.8-1.3-1.6-2.8-1.6-4.4-1.5-3 .2-5.9.4-8.9.7-4.5.4-41.6 4.5-45.7 5-3.4.4-6.7 1.2-10.1 1.6-4 .4-27.2 2.9-30.6 3.7zm-86.6 190.3c-.3-1.3-.6-2.6-.8-3.9-.3-2.1-.5-4.2-.7-6.3-.2-1.9-.2-1.9-2.1-1.3-1.2.4-2.3.8-3.5 1.2-2.9.9-5.9 1.8-8.8 2.8-1.9.7-1.9.7-1.7 2.8.2 4.2.5 8.5.7 12.7.2 4.6.5 9.3.6 13.9 0 1.6.7 2.6 2.1 3.2 2.3 1.1 4.6 2.2 7 3.3.8.4 1.7.6 2.6 1 0-1 .2-2.1 0-3.1-1.5-6.4-1.7-13.1-2.7-19.6-.2-1.1.4-1.5 1.3-1.8 1.1-.3 2.1-.6 3.2-1 2.5-.8 2.8-1.2 2.8-3.9zm-18.6 10.5c-.4-5.3-.8-9.7-1.1-14.2-.1-1.9-.2-1.9-1.9-1.2-6.3 2.6-12.6 5-18.9 7.6-1.7.7-3.4 1.4-5.1 2.2-.7.3-.9.9-.6 1.7.7 2 1.9 3.4 4 4.1 1.4.4 2.5 1.5 3.8 2.1 2.8 1.3 5 3.5 8.1 4.3 1.8.5 3.5 1.7 5.2 2.6s3.4 1.9 5.1 2.8c.9.5 1.2.1 1.3-.8 0-.4.1-.8.1-1.2 0-3.6 0-7.2 0-10zm16.7 17.9c-.3 1.3-.5 2.6.9 3.3 3.5 1.8 7 3.5 10.5 5.2 1.3.6 1.6.2 1.3-1.2-.6-2.7-1.3-5.4-2.1-8.1-1.6-5.4-3.2-10.8-4.8-16.2-.4-1.2.2-2.7 1.2-2.6 2.1.2 3.7-1 5.5-1.7 3.3-1.5 6.6-3 10-4.3 2.4-1 2.5-.9 2.1-3.6-.2-1.5-.5-1.6-1.9-1-1.2.5-2.3 1.3-3.5 1.6-4.2 1.3-8.5 2.3-12.7 3.7-2.6.8-5.1 2-7.6 3.1-1.4.6-1.8 1.9-1.8 3.3.1 1.3.1 2.7.3 4 .5 3.3 1.1 6.5 1.7 9.7.3 1.6.6 3.2.9 4.8zm55.5-25.8c.2 1.7.3 3.4.6 5.1.6 3.1 1.3 6.2 1.9 9.3.2.8.6 1 1.3.5 4.9-3 9.8-6 14.7-9.1 1.1-.7 1.1-1.1-.1-1.7-1.5-.8-3.1-1.6-4.8-2-4.2-1.1-8.5-1.9-12.7-2.9-.6-.1-1.1-.1-.9.8zm-53-10.8c.4 2.8.8 5.6 1.3 8.4.3 1.6.6 1.6 2.2 1.1 2-.6 4-1.1 5.9-1.8 3.3-1.1 6.5-2.2 9.8-3.4.6-.2 1-.8 1.4-1.3-.6-.3-1.2-.7-1.9-.9-2.4-.7-4.8-1.2-7.1-1.8-3.4-.9-6.8-1.7-10.2-2.6-1-.3-1.5.2-1.5 1.2.1.4.1.8.1 1.1zm44.8-85.6c0-.6 0-1.1 0-1.7 0-.2-.2-.5-.3-.7-.2.2-.5.3-.6.5-.5.7-1 1.5-1.4 2.3-2.6 4.8-5.1 9.5-7.7 14.3-.4.7-.8 1.5-1.2 2.2-.1.1.3.7.4.7 3.5-1.2 6.9-2.5 10.4-3.8.2-.1.4-.5.5-.8 0-1.6 0-13-.1-13zm-20.8 91.6c.2.7.5 1.4.5 2.1 0 1.2.5 1.1 1.4.8 2.7-.9 5.4-1.7 8-2.6.1 0 .3-.1.4-.2-.1-.1-.2-.2-.4-.3-2.7-.5-5.4-1-8.2-1.5-1.3 0-1.6.3-1.7 1.7z" fill-rule="evenodd"/><path d="m522.6 163.9c4.5-.4 8.7.9 12.9 2.1.6.2 1.2.3 1.8.4 1.5.2 1.9.7 1.6 2.2-.2 1.1-.7 2.3-.9 3.4-1.3 5.6-1.9 11.4-2 17.1 0 3.8-.5 4.2-4.1 3.3-3.3-.8-6.4-1.8-9.7-2.7-1.3-.3-2.6-.6-3.9-.8-2-.3-2.3-.5-2.2-2.5.2-3.2.5-6.4.6-9.5.1-1.4.1-3-.3-4.3-.3-1-1.1-2.1-1.9-2.8-2-1.6-4.2-2.9-6.4-4.3-4.1-2.5-8.2-5-12.3-7.5-1.4-.9-1.5-.9-1.6.8-.1 2.7 0 5.4.1 8 0 1.3.1 2.6.1 3.9-.1 1.5-.8 2-2.6 2.1-2.3.1-4.6.1-6.9.3-3.8.4-7.7 1-11.5 1.5-1.8.2-3.6.3-5.3.5-2.2.3-4.4.7-6.6.9-2.7.3-5.5.2-8.2.7-3.6.7-7.1.5-10.7.7-2.5.1-5 .5-7.5.8-.7.1-1.4.3-2.2.3-1.6.1-1.7-.1-1.8-1.6-.4-5.8-1.1-11.6-2.1-17.3-.6-3-.5-6.1-.7-9.2 0-1-.2-1.3-1.4-1.5-4.5-.7-8.9-1.5-13.4-2.3-4.8-.9-9.6-1.8-14.4-2.6-2.1-.3-4.3-.3-6.4-.5-.6-.1-1.1-3.7-1.1-4.1 0-1-.1-2.1-.1-3.1 0-2.4-.1-4.8-.1-7.2 0-1.3-.5-12.1-.8-16.2-.3-4-1.1-18.3-1.4-21.3-.1-1.8-.3-2 1.6-2.1 3.6-.3 7.2-.4 10.7-.5 2.2-.1 10.6.3 12.7.5 3.2.3 15.1.8 17.9 1 4.3.2 17.6 1.1 19.9 1.3 1 .1 5.4-.3 5.1 1.5-.1 1 .5 9.8.3 13-.3 3.3.3 6.7.4 10 .1 2.3.1 4.6.1 6.9 0 1.4.7 1.7 1.9 1.6 5.8-.4 11.5-.6 17.3-1 4.2-.3 8.5-.7 12.7-1.2 1.6-.2 3.2-.5 4.8-.6 1.5-.1 2.1.5 2 2-.2 1.8-.5 3.5-.8 5.3-.2 1.6-.5 17.3-1.4 23.3-.2 1.3.2 2.2 1.2 2.9 1.8 1.1 3.6 2.3 5.4 3.4 4.3 2.6 8.7 5.3 13.1 7.9.4.2.9.4 1.3.5 0-.4.1-.9.1-1.3-.1-1.1.4-1.5 1.4-1.6 1.8-.2 3.7-.4 5.7-.5zm-67.6-68.1c0-1.2-.6-2-1.9-2.1-5.3-.5-10.6-1.1-15.9-1.4-5.7-.3-11.3-.2-17-.4-3.5-.1-7-.7-10.5-.9-2.6-.1-14 .2-17.1.3-1 0-1.4.7-1.4 1.7v2.5c-.1 1.2.3 8.3.6 10.8.5 4.4 1.1 8.8 1.4 13.3.4 5.3 1 18.4.8 19.7-.1 1.6-.2 1.9 1.4 1.9 4.3.2 8.4 1.3 12.5 2.1 5.5 1.1 11.1 2 16.6 3 2.6.4 2.9.1 2.8-2.6s-.2-5.3-.3-8c-.1-2.2 0-4.5-.2-6.7-.3-2.8.5-3.8 3.2-3.7 2.7 0 12.5-.1 14.8-.2 3.1-.1 6.2.7 9.4-.1.8-.2.9-5 .9-5.7 0-4.2-.1-19.9-.1-23.5zm35 74.9c1.4-.2 1.6-.6 1.4-2-.1-.9.1-1.9.1-2.8 0-.6.2-1.2.2-1.8.1-3.1.1-6.2.3-9.4.2-2.6 1.8-23.4 2.1-28.1 0-.5.1-.9.1-.9 0-.2 0-1.7-.2-1.7-.8-.3-13.9 1.3-19.6 1.7-6 .5-12 .9-18.1 1.3-1.9.1-3.8.6-5.7.6-3.8-.1-17.5.4-20.6.6-.9.1-1.3.5-1.2 1.4 0 1.7.2 13.8.9 18.1.8 4.8.8 9.8 1.4 14.7.4 4 1 8 1.6 12 .3 2.1.3 2 2.5 1.9 5.8-.5 11.7-.9 17.5-1.4 2.9-.3 31.2-3.4 37.3-4.2zm28.5 12.2h.1c0 .7-.1 1.5 0 2.2.1.4.3.9.6 1.1 1.3.6 2.5 1.1 3.9 1.5 2.4.8 4.9 1.5 7.3 2.4 3 1.1 3.5.8 3.5-2.3.2-5.4.8-10.7 1.8-16 .3-1.7-.3-2.8-1.9-3.5-1-.4-2-.7-3-1.2-3-1.3-6.1-1.7-9.3-1-.9.2-1.8.4-2.7.3-1 0-1.3.3-1.1 1.3.9 3.5 1 7.1.9 10.7.1 1.5 0 3-.1 4.5z" fill-rule="evenodd"/><path d="m211.4 295.7c.5 4 .6 8.1 1.4 12 1.6 7.5 3.7 15 5.5 22.5.7 2.9 1.1 5.9 1.7 8.9.4 2.1 2.6 8 1.7 8.8-2.8 2.6-4.5 6-6.2 9.3-2.4 4.6-3.1 9.6-4.1 14.6-.5 2.4-1.2 4.8-1.7 7.2-.2.8-.2 1.7-.5 2.5-.2.7-.6 1.5-1.2 1.9-1.1.8-1.7.3-2.1-1-.9-3.5-1.5-7.2-3-10.4-1.5-3.3-2.3-6.7-3.4-10.1-1-3-1.5-6.2-2.3-9.2-.3-1.3-.9-2.6-1.4-4-.4-1.3-.9-2.5-1.3-3.8s-.9-2.6-1.4-3.9c-.3-.9-.8-.8-1.3-.2-.8 1.1-1.7 2.1-2.3 3.3-1.4 3-3 6-4 9.2-1 3.1-3.3 9.5-4.7 8.6s-1.5-2.1-2.2-3.7c-1.2-2.9-4.6-10-5-10.7-.9-1.7-6-14.5-7.5-17.5-1.3-2.5-16.5-34.3-13.4-38.6 1.3-1.8 4-5.7 5.2-7.5 1.7-2.8 3.5-5.5 5.3-8.2.9-1.3 2.1-2.5 3.1-3.8 2-2.7 4-5.4 5.9-8.1 1.5-2.1 3.2-4 4.5-6.2 1.7-2.7 3.6-5.3 5.8-7.8.9-1 3.5-4.8 4.5-4.4.3.2.7.8.7 1.1-.8 2.7-.3 5.5-.1 8.2.4 5.7 1 11.5 1.6 17.2.8 8.1 2.8 15.9 6 23.4.7 1.8 1.2 3.6 1.8 5.4.2.5.3 1 .6 1.4.1.2.7.2.8.1 1.4-1.9 2.7-3.8 4.1-5.7.1-.1.1-.3.2-.5 2.2-2 4.4-4 6.7-6 .7-.6 1.5-.7 1.7.7.3 1.5.4 5 .3 5zm-55.9-2.5c.5 2.4.4 6.3 1.1 8.2 1.6 4.3 6.1 14.2 7 16.7 1.1 3 8 19 9.8 23 2.5 5.5 5.2 11 7.8 16.5.1.2.3.3.4.4.1-.2.3-.3.4-.5.1-.3 4.9-14 8.9-19.9.3-.4.4-1.2.2-1.7-.6-1.8-1.2-3.5-1.9-5.2-.8-1.8-1.7-3.6-2.4-5.5-.2-.5 2.1-5.4 3-7.2 2.1-3.8 4.1-7.6 6-11.4.3-.5.5-1.3.3-1.9-.5-2.2-.9-4.5-1.7-6.6-1-3.1-2.7-6-3.5-9.1-1.2-4.7-2.8-9.3-3.1-14.2-.4-5.5-2-21.4-2.2-23.9 0-.4-.3-.8-.5-1.2-.3.2-.7.4-.9.7-1.5 2.1-2.9 4.3-4.3 6.4-1.9 3.3-23.9 35.4-24.4 36.4zm54.1.1c-.1-.6-.4-.9-1.1-.4-2.7 2.3-5 4.9-7.1 7.8-1.5 2.2-2.2 4.9-3.8 7.1-2.5 3.7-4.4 7.8-6.5 11.7-1.1 2.1-1.7 4.4-1.2 6.7.4 1.9 1.2 3.7 1.9 5.6 2.1 5.8 4.2 11.7 6.2 17.5.9 2.8 1.5 5.8 2.3 8.6 1.1 3.7 2.3 7.3 3.5 11 1 2.9 2.1 5.6 3.2 8.5.1.2.2.3.4.5.1-.2.4-.4.4-.6.4-1.8.6-3.6 1-5.4.6-2.6 1.4-5.1 1.9-7.6 1-5.5 3.7-10.1 6.6-14.7 1.2-1.9 2.3-3.7 1.6-6.2-1-3.5-1.5-7.2-2.2-10.8-.3-1.7-.6-3.4-1-5.1-1.5-6.1-3.2-12.1-4.5-18.3-.8-4.7-1.5-15.3-1.6-15.9z" fill-rule="evenodd"/><path d="m230.8 209.2c.5-.6 1-1.3 1.5-1.7 3.8-2.7 7.6-5.3 12-7 2.8-1.1 5.6-2.1 8.3-3.1 1.1-.4 2.2-1.1 3.4-1.5 2.9-1 5.8-2.1 8.7-3 4-1.2 3.7-.7 2.6-4.5-1.1-3.6-2.2-7.3-3.4-10.8-.4-1.1-.1-1.8.8-2.3 1.9-1 3.9-1.9 5.9-2.7 4-1.7 8.2-3 12-5.2 3.7-2.1 7.7-3.2 11.6-4.8 1-.4 1.5-.3 2.1.8 2.1 4.3 2.7 9.1 4.1 13.6 1.1 3.5 2.3 6.9 3.5 10.3.4 1.1.2 1.7-.7 2.3-2.1 1.2-4.3 2.4-6.4 3.6-.7.4-1.5.8-2.1 1.3-2.3 2-5 3.5-6.6 6.1-.7 1.1-1.3 2.2-1.9 3.3-.1.1-.1.3 0 .5.4 1.9.6 3.8 1.1 5.6 1.2 4.3 2.4 8.6 3.8 12.8 1.4 4.1 3 8.1 4.6 12 .7 1.8 1.7 3.5 2.6 5.2.4.8.2 1.6-.5 2-1.7 1-3.4 2.1-5.2 2.9-3.8 1.7-7.7 3.4-11.6 5-1.5.6-3.2 1-4.8 1.6-.7.3-1.3.8-2 1.1-1.8.8-3.7 1.5-5.5 2.4-2.9 1.4-5.7 3-8.6 4.5-1.3.7-2.7 1.4-4.1 1.9-.3.1-.9-.2-1.1-.5-.6-.9-1-1.9-1.5-2.8-2.1-4.3-4.1-8.7-6.2-13-.4-1-.6-2-1-3-1.4-3.1-2.8-6.2-4.2-9.3-1.1-2.2-2.4-4.3-3.5-6.5-.7-1.4-1.3-2.8-1.9-4.3-1.3-3.2-2.5-6.4-3.8-9.5-.2-.6-.6-1-.9-1.6-.4-.4-.7-.9-1.1-1.7zm51.4-18c-.1-.9-.5-.9-1.2-.8-1.8.5-3.7 1-5.5 1.4-5.8 1.4-11.6 2.8-17.1 5.1-3.5 1.5-6.9 3.3-10.5 4.4-4.7 1.5-8.9 3.9-12.9 6.7-1.1.8-1.3 1.5-.8 2.7 2.4 5.6 4.8 11.2 7.3 16.8 1.2 2.8 2.7 5.4 3.9 8.1 1.4 3 2.6 6.2 4 9.2 2 4.4 4 8.9 6 13.3.3.7.8 1.1 1.6.8.7-.3 1.4-.7 2.1-1.1 1.4-.8 2.7-1.7 4.2-2.5 1.7-.9 3.6-1.6 5.3-2.4 4.9-2.2 9.8-4.3 14.7-6.5 3.4-1.5 6.9-3 10.3-4.5 1.7-.7 1.7-.9 1.2-2.7-.1-.3-.2-.6-.4-.9-1.7-4.4-3.4-8.7-5-13.2-1.2-3.6-2.2-7.3-3.3-10.9-.6-1.9-1-3.9-1.4-5.9-.5-2.2-.9-4.5-1.3-6.7-.4-2.3-1.1-9.3-1.2-10.4zm2.9 7.7c.1 1.2.6 1.2 1.4.5 1.4-1.3 2.8-2.5 4.2-3.8 0 0 5.6-4.3 8.9-5.8 1-.4 1.6-1.1 1.3-2.2-.4-2.1-.9-4.1-1.4-6.2-.5-2.2-3.5-12.2-4.4-15.1-.3-.9-1-1.5-1.9-1.2-2.2.7-4.4 1.6-6.6 2.5-3.3 1.4-12.7 5.5-14.1 6.2-1.7.8-3.3 1.8-5 2.7-1 .5-1.4 1-1.2 2.2.6 3.1 3.6 9.6 3.7 10.1.4 1.5 1.5 2.2 3 1.8 3.1-.8 6.3-1.7 9.4-2.5.7-.2 1.6-.3 1.8.7.3 2.1.8 9 .9 10.1z" fill-rule="evenodd"/><path d="m313.9 145c-.4.4-.8.9-1.3 1.1-3.5 1.4-7 2.7-10.5 4.1-1.9.8-3.8 1.7-5.6 2.5-1.6.7-3.2 1.4-4.8 2.1-3.6 1.6-7.3 3.2-10.9 4.8-5.4 2.3-10.8 4.5-16.4 6.3-3.9 1.2-7.7 2.9-11.5 4.7-4.3 2.1-8.5 4.4-12.8 6.6-1 .5-2 1.2-3 1.7s-2.1 1.1-3.2 1.3c-1.6.4-2.3-.4-2.5-2-.4-4.4-1.5-8.6-3.3-12.6-1.1-2.4-2.3-4.7-4.2-6.6-1.2-1.3-.7-2.4.9-3.1 4-1.7 8-3.5 12-5.2 1.5-.6 3-1.2 4.5-1.7 3.5-1.3 6.7-3.1 10.2-4.3 5.5-1.9 10.9-4.4 16.3-6.6 5.3-2.2 10.5-4.3 15.8-6.5 4.2-1.7 8.6-3.3 12.6-5.4 2.4-1.2 5-1.1 7.3-2.2.4-.2 1.2-.1 1.4.2 1.5 1.7 3.6 3 4.1 5.6.9 4.7 2.7 9.1 4.3 13.6.2.4.3.8.6 1.6zm-10.1-17.8c-.8.2-1.2.3-1.6.4-4.3 1.3-20.7 6.8-24.4 8.8-1.6.8-6.7 3.2-7.6 3.5-5.2 2-10.3 4-15.5 5.9-3.7 1.4-14.8 6.1-16.8 6.8-3.4 1.1-6.8 2.3-9.8 4.2-1.6 1-1.6 1.1-.7 2.7 1.3 2.6 2.7 5.2 3.7 7.9 1 2.6 1.5 5.4 2.2 8.1.1.4.5 1.1.7 1 1.2-.1 2.5-.3 3.6-.7 2.4-1 4.7-2.1 6.9-3.4 4.4-2.5 8.9-4.8 13.7-6.6 3.9-1.4 7.8-2.9 11.6-4.3 1.6-.6 3.2-1 4.7-1.7 3.5-1.5 16.8-7.4 19.8-8.7 2.8-1.2 5.6-2.5 8.5-3.6 2.1-.9 4.3-1.7 6.4-2.5 1.8-.7 2-1 1.5-2.9-.4-1.4-.8-2.7-1.3-4-1.3-3.4-1.7-7.1-4.3-9.9-.3-.4-.9-.7-1.3-1z" fill-rule="evenodd"/><path d="m623.9 117.6c-.1-.6-.3-1-.3-1.5-.1-1.7 1.5-2.7 3.1-2 2.3 1 4.7 1.7 7 2.7 1.7.7 3.4 1.5 5 2.3 1.5.7 3 1.4 4.6 2.1 1.1.5 2.2 1.1 3.3 1.6 2.2 1 4.4 1.9 6.5 3 3.9 1.9 7.8 3.9 11.7 5.9 1.2.6 2.6 1.1 3.8 1.7 3.7 1.6 7.4 3.3 11 4.9.9.4 1.6.9 2.4 1.5 2 1.3 4.1 2.4 6.4 3.3 1.4.5 2.6 1.7 3.8 2.7.3.2.4.8.3 1.1-.4.9-.8 1.8-1.3 2.7-1.7 2.6-3.4 5.2-5.2 7.8-1.6 2.3-3.2 4.5-4.8 6.9-.6.8-1 1.8-2.1 2-.6.1-1.4 0-1.8-.3-3.3-2.5-7-4.2-10.9-5.5-2.1-.7-4.2-1.7-6-3-3.7-2.5-7.7-4-11.8-5.6-7.1-2.9-14.4-5.2-21.1-9-2.4-1.3-5.1-2-7.6-3-1.8-.7-1.8-.8-1.3-2.7 1.6-6.1 3.3-12.2 4.9-18.3.2-.7.3-1 .4-1.3zm3.8-.3c-.6.3-1.3.5-1.4.9-.8 1.8-1.6 3.6-2.2 5.4-1.2 3.9-2.2 7.9-3.3 11.8-.4 1.5-.4 1.7 1.2 2.4 3.7 1.6 7.3 3.1 11 4.7 4.1 1.8 8.2 3.7 12.4 5.5 5.2 2.2 10.5 4.3 15.6 6.6 5.3 2.5 10.5 5.2 15.8 7.8 1.2.6 2.3.5 3.3-.6 3.7-4 6.2-8.9 9.4-13.3.6-.8.3-1.6-.6-2-1.7-.8-3.3-1.7-5-2.6-1.9-1-3.8-1.9-5.6-2.9-2.8-1.6-5.6-3.3-8.4-4.8-2.4-1.3-4.8-2.3-7.2-3.5-2.1-1-4.1-2.2-6.3-3.2-3.2-1.5-6.4-2.9-9.6-4.3-2.7-1.2-5.3-2.6-8-3.8-1.8-.8-3.7-1.5-5.6-2.2s-3.7-1.3-5.5-1.9z" fill-rule="evenodd"/><path d="m410.6 57.8c2.6.1 22.2.5 26.1.6 3.2.2 6.5.4 9.7.6 3.4.1 6.8.1 10.2.2h5c1.7.1 2 .8 1.6 2.5-.2.9.1 2 .1 2.9-.1 4.5-.3 8.9-.4 13.4 0 1-.7 1.1-1.5 1.1-3.4-.1-6.7-.3-10.1-.4-4.5-.1-9-.3-13.4-.3-4.8 0-17.9.2-19.6.1-.8 0-1.6 0-2.3 0-6.7.1-13.4.2-20.1.3-3.1.1-3.3-.2-3-3.3.4-3.8.7-7.6.9-11.4.1-1.7-.1-3.3-.1-5 0-1.1.5-1.6 1.6-1.6 2 0 12.3.2 15.3.3zm-13.4 1.8c-1.2.1-1.7.7-1.7 2 0 3.9-.2 7.7-.4 11.6-.2 3.1-.3 3.2 2.7 3.3 4 .2 8 .1 12.1.1 2.1 0 4.1-.4 6.2-.4 3.1 0 6.1.3 9.2.3 6.8 0 13.6-.3 20.3-.2 3.8 0 7.6.4 11.4.8 2.3.2 2.6.3 3.6-1.7.3-.6.4-1.3.5-1.9.2-1.6.3-3.2.4-4.9 0-.8-.1-1.5-.1-2.3-.1-1.4-.5-2.8-.2-4.1.1-.8.1-.8-.5-.8-2.9 0-5.8-.1-8.7-.1-6.7-.2-13.4-.4-20.1-.6-5.7-.2-11.4-.5-17.1-.7-5.1-.3-16.7-.5-17.6-.4z" fill-rule="evenodd"/><path d="m177.8 238.5c-1.5 1.3-20.2 21.7-23.2 25-2.9 3.3-6 6.5-9 9.7-1.8 1.9-3.7 3.7-5.5 5.6-.8.8-1.3.4-1.8-.2-1.2-1.8-2.3-3.7-3.5-5.4-1.5-2.1-3.1-4.1-4.6-6.1-2.5-3.3-5.3-6.3-7.1-10.1-.4-.8-.2-1.5.6-1.9 3.2-1.5 5.4-4.2 7.9-6.4 1.8-1.6 26.9-23.6 29.1-25.9 1.6-1.7 2.9-3.6 4.2-5.5.7-1 1.8-1.1 2.6 0 1.1 1.6 2.2 3.1 3 4.8 1.1 2.1 8.7 15.2 7.3 16.4zm-38 37.5c.6-.4 1-.6 1.3-.9 2-1.9 4-3.7 5.9-5.7 2.5-2.6 14.4-16.5 18-20.7 3-3.5 6.1-6.8 9.3-10.1 1.4-1.5 1.6-2.3.4-4.1-.6-.8-1.2-1.5-1.6-2.4-1.3-2.7-5.2-10.6-6-11.7-.4-.6-.8-.5-1.2 0-.7.8-1.3 1.5-2 2.2-1.6 1.6-3.2 3.1-4.9 4.6-2.2 2.1-4.4 4.1-6.6 6.2s-21.7 20-25.9 23.1c-.7.5-.8 1.3-.2 2.1 1.8 2.3 12.9 16.7 13.5 17.4z" fill-rule="evenodd"/><path d="m382.1 294.5c-.1 2.5.1 2.7 2.5 2.9h1.5c1.8.1 3.7.1 5.5.3 1.2.1 2.4.4 3.7.4 3.6.1 7.1.1 10.7.2s7.3.3 10.9.6c3.6.2 7.2.6 10.8.8.6 0 1.3.1 1.8-.2.5-.2 1-.8 1.1-1.3.2-1.2.2-2.5.2-3.8 0-.7-.2-1.3-1-1.2-.4.1-.9.6-1 1-.4 2.3-1.3 3-3.6 2.7-1-.1-2-.1-3-.1-3.2-.1-6.3-.1-9.5-.3-3.9-.1-7.8-.3-11.7-.4-1.2 0-2.5 0-3.7-.1-3.8-.4-7.5-.9-11.3-1.4-1-.1-1.5-.6-1.7-1.6-.1-.4.1-1-.1-1.3-.4-.5-.9-1-1.5-1-.8-.1-1.2.5-1.1 1.3.3.9.4 1.7.5 2.5zm.9-31.4c1.3 0 2.4-1 2.3-2.1s-.6-2.1-1.9-2.1c-1.2 0-2.4 1.1-2.3 2.2.1 1.3.9 1.8 1.9 2z" fill="none"/><path d="m608.3 215.1c-.3-6.5-1.5-11.3-4.8-15.2-3.6-4.2-8.1-6.8-13.8-7.1-2.8-.1-5.6-.9-8.5.1-2.3.8-4.4 1.9-6.5 3.3-3 2.2-5.7 4.4-7.7 7.7-2.3 3.8-3.9 7.7-4.8 12-.3 1.6-.9 3.2-.7 4.7.3 2.6 1.2 5.2 1.8 7.8.1.4.3.8.6 1.2 1.3 1.8 2.3 3.8 4.1 5.2 2.3 1.8 4.4 3.8 6.6 5.7.2.2.5.3.8.3 2.8.4 5.5.9 8.3 1.1 3.4.3 6.9.2 10-1.6 2.6-1.5 5.3-2.8 7.6-4.8 1.9-1.6 3.7-3.2 4.4-5.7.6-2 1.3-4 1.6-6.1.5-3.1.8-6.5 1-8.6z" fill="none"/><path d="m329.9 478.3c1.1 0 3.5-2 3.5-3.1 0-2.2.9-4.1 2-6 1-1.8 2-3.8 2.8-5.7.7-1.6.1-2.4-1.7-2.4-1.3.1-2.6.1-3.8.3-1.3.2-1.9-.4-2.2-1.5-.4-1.6-.9-3.2-1.4-4.8s-1.7-2-3.2-1.2c-.5.3-.9.7-1.4.9-1.7.4-3.5.9-5.2 1.1-2.2.2-2.9 1.2-2.1 3.2.8 1.8 1.3 3.8 1.9 5.7.4 1.2-.1 2.2-1.1 3-.4.3-.9.7-1.3 1.1-1.8 1.6-1.4 3.5.8 4.4 2.1.8 4.2 1.5 6.2 2.4 1.7.7 3.2 1.7 4.9 2.5.4 0 .9 0 1.3.1zm12.7 4.9c-.7-1.6-1.2-3.1-1.9-4.5-.5-.9-1.5-1.1-2.5-.6-.8.4-1.6.9-2.4 1.2-3.3 1.2-6.7 2.5-10.1 3.6-2.1.7-4.3 1.3-6.4 1.9-1.3.4-2.2 1.4-1.8 2.5.8 2.1 1.8 4.1 2.8 6.1.4.7 1 1 1.8.6 2.9-1.5 6-2.7 8.8-4.5 3.3-2.1 6.9-3.5 10.4-5 .4-.1.8-.7 1.3-1.3z" fill="none"/><path d="m332.8 436.2c.4 1.9-.7 2.7-2.2 3.5-4.2 2.2-8.4 4.4-12.6 6.7-2.7 1.5-5.4 3-8 4.7-4 2.5-7.9 5.1-11.8 7.8-.8.5-1.4.4-2.2.2-2.5-.6-3.6-2.6-3.9-4.8-.8-5.1-2.3-9.9-3.9-14.8-.8-2.5-1.3-5.1-2.1-7.6-.4-1.4.1-2.3 1.3-2.9 5.1-2.5 10.2-5.2 15.8-6.5.6-.1 1.1-.5 1.7-.8 3.8-2 8.1-2.6 12.2-3.7 3.3-.9 6.4-2.2 9.6-3.5 1.9-.8 2-.8 2.4 1.2.9 5 1.9 9.9 2.7 14.9.5 1.9.7 3.8 1 5.6z" fill="none"/><path d="m279 418.5c0 2.7-.3 3.1-2.8 4-1 .4-2.1.7-3.2 1-.9.3-1.5.7-1.3 1.8.9 6.5 1.1 13.1 2.7 19.6.2 1 0 2.1 0 3.1-.9-.3-1.8-.6-2.6-1-2.3-1.1-4.6-2.3-7-3.3-1.4-.7-2.1-1.6-2.1-3.2-.1-4.6-.4-9.3-.6-13.9-.2-4.2-.4-8.5-.7-12.7-.1-2.1-.2-2.1 1.7-2.8 2.9-1 5.8-1.9 8.8-2.8 1.2-.4 2.3-.8 3.5-1.2 1.8-.6 1.8-.5 2.1 1.3.2 2.1.4 4.2.7 6.3.2 1.2.5 2.5.8 3.8z" fill="none"/><path d="m260.4 429v9.9c0 .4 0 .8-.1 1.2 0 .9-.4 1.3-1.3.8-1.7-.9-3.4-1.9-5.1-2.8s-3.4-2.1-5.2-2.6c-3.1-.8-5.4-3-8.1-4.3-1.3-.6-2.5-1.6-3.8-2.1-2.1-.7-3.3-2.1-4-4.1-.3-.8-.1-1.3.6-1.7 1.7-.7 3.4-1.5 5.1-2.2 6.3-2.5 12.6-5 18.9-7.6 1.8-.7 1.8-.7 1.9 1.2.3 4.6.7 9.1 1.1 14.3z" fill="none"/><path d="m277.1 446.9c-.3-1.6-.7-3.1-1-4.7-.6-3.2-1.2-6.5-1.7-9.7-.2-1.3-.2-2.7-.3-4-.1-1.4.4-2.7 1.8-3.3 2.5-1.1 5-2.3 7.6-3.1 4.2-1.4 8.5-2.4 12.7-3.7 1.2-.4 2.3-1.1 3.5-1.6 1.4-.6 1.6-.5 1.9 1 .4 2.6.4 2.6-2.1 3.6-3.4 1.4-6.7 2.9-10 4.3-1.8.8-3.4 2-5.5 1.7-1-.1-1.6 1.4-1.2 2.6 1.6 5.4 3.3 10.8 4.8 16.2.8 2.7 1.4 5.4 2.1 8.1.3 1.4 0 1.8-1.3 1.2-3.5-1.6-7-3.4-10.5-5.2-1.2-.8-1.1-2.1-.8-3.4z" fill="none"/><path d="m332.6 421.1c-.2-.9.2-.9.9-.7 4.2 1 8.5 1.8 12.7 2.9 1.7.4 3.2 1.2 4.8 2 1.2.6 1.2 1 .1 1.7-4.9 3.1-9.8 6.1-14.7 9.1-.7.5-1.1.3-1.3-.5-.6-3.1-1.3-6.2-1.9-9.3-.3-1.8-.4-3.5-.6-5.2z" fill="none"/><path d="m279.6 410.3c0-.3 0-.7 0-1 0-1 .4-1.5 1.5-1.2 3.4.8 6.8 1.7 10.2 2.6 2.4.6 4.8 1.2 7.1 1.8.7.2 1.3.6 1.9.9-.5.4-.9 1.1-1.4 1.3-3.2 1.2-6.5 2.3-9.8 3.4-2 .7-4 1.2-5.9 1.8-1.6.5-1.9.4-2.2-1.1-.6-2.9-1-5.7-1.4-8.5-.1 0 0 0 0 0z" fill="none"/><path d="m303.6 416.3c.1-1.4.4-1.8 1.7-1.6 2.7.4 5.4 1 8.2 1.5.1 0 .2.2.4.3-.1.1-.3.2-.4.2-2.7.9-5.4 1.7-8 2.6-.9.3-1.4.3-1.4-.8-.1-.8-.4-1.5-.5-2.2z" fill="none"/><path d="m445.1 158c-.1.8-.2 1.3-.2 1.8-.1 2 .3 2.3 2.2 2 .8-.1 1.5-.5 2.3-.4 1.7 0 3.6-.2 5.1.4 2.1.8 4 2.2 6 3.3 1.5.8 3.1 1.6 4.6 2.3.7.3 1.4 0 1.6-.8.2-.6.3-1.3.3-2-.2-3.7-.4-7.4-.6-11-.1-1.5 0-3 0-4.5 0-1.2.1-2.3 0-3.5-.2-3.4-.9-6.8-.5-10.3.1-.5-.2-1.3-.5-1.4-.7-.2-1.7-.3-2.2.1-2.1 1.5-4.1 3.2-6.1 4.9-3.2 2.7-7 4.3-11.2 4.6-1.6.1-2 .5-2 2 0 .8 0 1.7.1 2.5.4 3.5.8 6.9 1.1 10zm30.1-6.2c-.6.3-1 .6-1.4.9.3.4.4.9.8 1.2 1.4 1 2.7 1.9 4.2 2.8 1.1.7 2.3 1.2 3.4 1.8.8.4 1.3-.1 1.6-.7.3-.7 0-1.1-.7-1.4-1.4-.7-2.8-1.6-4.1-2.4-1.4-.8-2.6-1.4-3.8-2.2zm-.4-4.6c.4 0 .5 0 .6-.1 2-.8 4.1-1.5 6-2.5.7-.4 1.1-1.3.6-2.2-.6-1-1.4-.4-2-.1-1.8 1.1-3.6 2.2-5.4 3.3-.3.2-.5.5-.7.8.3.4.7.7.9.8z" fill="none"/><path d="m196.9 332.3c.9 0 2-1 2.2-2 .1-.6.2-1.4.5-1.9 1.5-2.6 3-5.1 4.6-7.6.7-1.2 1.8-2.1 2.6-3.3.3-.4.2-1 .3-1.5-.5-.1-.9-.2-1.4-.2-.2 0-.3.3-.5.5-3.1 4.8-6.3 9.6-9.4 14.4-.4.6.3 1.6 1.1 1.6zm3.3 5.7c.7-.9 1.3-1.5 1.8-2.3.4-.7.5-1.5 1-2.1 1.7-2.6 3.4-5.2 5.2-7.8.2-.3.4-.6.4-.9 0-.4-.1-1-.4-1.1-.4-.2-1-.1-1.4 0-.4.2-.6.7-.8 1.1-1.3 2.2-2.6 4.4-3.9 6.6-.7 1.2-1.7 2.2-2.4 3.4-.3.6-.4 1.3-.4 2 0 .2.4.5.9 1.1zm11-3.7c-.6-.3-1.1-.8-1.5-.8-.5.1-1.2.5-1.5.9-2.1 3.2-3.9 6.6-6.6 9.4-.4.4-.3 1.6 0 2.1.6.8 1.4.3 2-.3.3-.3.4-.8.6-1.2.3-.8.6-1.6 1-2.3 1.6-2.2 3.3-4.4 4.9-6.6.4-.2.7-.6 1.1-1.2z" fill="none"/><path d="m283.7 138.2c-1.2.3-1 .9-.7 1.6.9 2.4 1.7 4.9 2.6 7.4.1.3.3.6.5.9.4.5.9 1.1 1.7.6.7-.5.7-1.1.3-1.9-.6-1.3-1.1-2.7-1.7-4.1-.5-1.2-1.1-2.3-1.7-3.4-.3-.6-.8-.8-1-1.1z" fill="none"/><path d="m666.4 140.8c.3-.2.9-.5 1-.9s-.2-1.1-.6-1.3c-1.1-.7-2.3-1.3-3.6-1.8-1.6-.6-2.2-.3-2.9 1.2-1.2 2.4-2.3 4.8-3.5 7.2-.6 1.2-.3 2.2.7 2.8 1.7 1.1 3.6 2.1 5.4 3 1 .5 2-.1 2.3-1 .2-1.1-.7-1.1-1.4-1.5-1.1-.5-2.2-1.2-3.2-1.9-.3-.3-.4-.9-.5-1.4.5-.1 1-.4 1.5-.4.6 0 1.2.2 1.8.3.9 0 1.4-.6 1-1.4-.2-.5-.7-1-1.2-1.2-.7-.3-1-.6-.7-1.4s.6-1.3 1.6-.9c.7.2 1.4.3 2.3.6zm-10.5-2.8c-.1-3.8-3.6-6.7-7-6-.5.1-1.1.5-1.3.9-1 2.2-1.9 4.5-2.7 6.8-.2.5 0 1.3.4 1.7 1.7 2 4.5 2.6 6.8 1.3 2-1 3.3-2.8 3.8-4.7zm22.7 10.7c.1 0 .1 0 0 0 0-.5 0-1-.1-1.5-.3-1.8-2.9-3.2-4.5-2.1-1.8 1.2-3.5 2.5-4.4 4.6-.7 1.6-.6 3.4.5 4.5 1.3 1.4 2.7 1.8 4.5 1 3.1-1.2 4.6-2.9 3.9-6.1.1-.1.1-.3.1-.4zm-45.6-25h.3c-.1-.8 0-1.6-.3-2.3-.2-.4-.8-1-1.2-.9-.5.1-.9.7-1.3 1.1-.2.2-.2.7-.1 1 .9 3.4.1 6.7-.2 10.1 0 .5.2 1.4.5 1.5.5.2 1.4 0 1.8-.3 2.1-2 3.8-4.4 6.4-5.9.1-.1.2-.2.2-.2.6-.7.5-1.2-.3-1.6-1.1-.7-1.8-.4-2.8.8-.7.8-1.5 1.6-2.3 2.4-.6.5-.9.4-.9-.4.2-1.8.2-3.5.2-5.3zm6 13.1c.4.3.8.9 1.3 1 .8.1 1.5-.1 1.6-1.2s.4-2.2.6-3.2c.3-1.4.7-2.7.9-4.1.1-.4-.4-1.2-.7-1.2-.5 0-1.1.4-1.6.6-.1.1-.1.4-.1.6-.4 1.7-.9 3.4-1.4 5.2 0 .7-.3 1.4-.6 2.3z" fill="none"/><path d="m414.6 59.9c5.7.2 11.4.5 17.1.7l20.1.6c2.9.1 5.8.1 8.7.1.6 0 .6 0 .5.8-.2 1.3.1 2.8.2 4.1.1.8.1 1.5.1 2.3-.1 1.6-.2 3.2-.4 4.9-.1.7-.2 1.3-.5 1.9-1 2-1.3 2-3.6 1.7-3.8-.4-7.6-.7-11.4-.8-6.8-.1-13.6.2-20.3.2-3.1 0-6.1-.3-9.2-.3-2.1 0-4.1.3-6.2.4-4 0-8 0-12.1-.1-3-.1-2.9-.2-2.7-3.3.2-3.8.4-7.7.4-11.6m18.4 11.6c-.3-.5-.4-.9-.6-1.2-.3-.6-.7-1.2-.9-1.8-.7-2-1.4-4.1-2-6.2-.2-.8-.5-1.2-1.4-1-.8.2-1.2.5-1.2 1.5-.1 1.7-.9 3-2.1 4.2-.6.6-1.1 1.4-1.6 2.1-.4.5-.6 1.2-1 1.6-.6.6-.8 1.1-.1 1.7.7.7 1.3.4 1.8-.3.4-.5.7-1 1.1-1.5.9-1.3 2.4-1.4 3.8-1.4 1.2 0 .8 1.4 1.2 2.1.1.2.1.5.2.6.5.4 1.1 1 1.5.9.4 0 .9-.8 1.3-1.3zm11.7-2.6h-.1c0 .5-.1 1-.1 1.5 0 1.1.6 1.9 1.6 1.9 4.2.2 6.4-1.8 6.5-6 0-.2.1-.3 0-.5-.1-2.4-1.4-3.8-3.3-3.4-1.1.2-2.3.2-3.5.2-1.8 0-2 .2-1.8 2 .2 1.4.4 2.8.7 4.3zm17.4-1.4c.1 1.2.1 2.1.3 2.9.1.5.5 1 .9 1.3 2 1.3 4.1.8 5.4-1.2.2-.3.6-.6.7-.9.5-1.4 1.2-2.8 1.4-4.2.1-.8-.5-2.1-1.1-2.4-2.9-1.4-5.2-1.4-6.8 2-.5.8-.7 1.9-.8 2.5zm-22.7-1.3c0 .7.1 1.4 0 2-.1.5-.4 1-.6 1.5-.3-.5-.8-1-.8-1.5-.1-1.3-.1-2.7 0-4 .1-.9-.1-1.5-1.1-1.5-.9 0-1.3.5-1.3 1.4s.1 1.8.2 2.7c.2 1.5.4 3.1.9 4.6.2.6 1 1.5 1.5 1.5.7-.1 1.5-.8 2.1-1.3.2-.2.4-.6.4-.9.3-2.3.7-4.5.9-6.8 0-.3-.6-1-1-1s-1.1.5-1.1.8c-.2.8-.1 1.7-.1 2.5zm17 2.9c-.1 0-.1 0-.2 0v1c0 1 .4 1.7 1.4 1.7s1.1-1 1-1.8c-.3-2.1-.6-4.2-1-6.3-.1-.4-.9-.9-1.3-.9-.4.1-.8.8-1 1.3-.1.2.2.6.3.9.3 1.4.5 2.8.8 4.1z" fill="none"/><path d="m160.4 233.6c.4.4.9.7 1.2 1.1 1.1 1.7 2.1 3.4 3.1 5.1.3.5.8 1 1.2 1.1.3.1 1.1-.4 1.1-.7.1-.5-.2-1.2-.5-1.7-.8-1.1-1.7-2.2-2.6-3.3-.6-.8-1.7-1.8-1.6-2.6.1-.9 1.2-1.7 1.9-2.6.1-.1.2-.2.2-.3.1-.3.2-.6.1-.8-.2-.2-.5-.4-.8-.4-.4 0-.8.2-1.1.4-2.2 1.4-4.4 2.9-6.6 4.3-.7.5-.5 1.1.1 1.3.5.2 1.3.1 1.9-.1.9.1 1.5-.4 2.4-.8z" fill="none"/><g fill-rule="evenodd"><path d="m382.1 294.5c-.1-.8-.3-1.5-.4-2.3s.3-1.4 1.1-1.3c.5.1 1.1.6 1.5 1 .2.3.1.9.1 1.3.1 1 .7 1.5 1.7 1.6 3.8.4 7.5.9 11.3 1.4 1.2.1 2.5 0 3.7.1 3.9.1 7.8.3 11.7.4 3.2.1 6.3.2 9.5.3 1 0 2 0 3 .1 2.3.3 3.2-.4 3.6-2.7.1-.4.6-1 1-1 .8-.1 1 .5 1 1.2-.1 1.3 0 2.6-.2 3.8-.1.5-.6 1-1.1 1.3-.5.2-1.2.2-1.8.2-3.6-.3-7.2-.6-10.8-.8s-7.3-.5-10.9-.6-7.1-.1-10.7-.2c-1.2 0-2.4-.4-3.7-.4-1.8-.1-3.7-.2-5.5-.3-.5 0-1 0-1.5 0-2.5-.4-2.7-.7-2.6-3.1z"/><path d="m383 263.1c-1-.2-1.8-.8-1.9-2-.1-1.1 1.1-2.3 2.3-2.2 1.3.1 1.8 1 1.9 2.1s-1 2.1-2.3 2.1z"/><path d="m435 256.8c1.4.1 1.5 1.6 1.6 2.3.2 1-1.1 2.1-2.1 2-.8 0-1.6-.8-1.8-2-.2-1.3 1-2.5 2.3-2.3z"/><path d="m608.3 215.1c-.2 2.1-.5 5.4-1 8.8-.3 2.1-1.7 8.4-6 11.8-6.3 4.9-14.3 5.9-17.7 5.6-6-.3-12.3-2.5-15.5-6.4-3.1-3.9-6.8-7.8-6.1-15.2.6-7.4 2.8-11.9 5.1-15.7 2-3.3 4.7-5.5 7.7-7.7 2-1.5 4.1-2.5 6.5-3.3 2.9-1 5.7-.2 8.5-.1 5.7.2 10.2 2.8 13.8 7.1 3.2 3.9 4.4 8.7 4.7 15.1zm-41.6 14.2c3.4 6.5 9.5 9.6 18.7 10 1.8.2 3.8-.3 5.6-.7 3.8-.8 8.8-4.5 10.1-6.3 1.2-1.8 2-3.8 2.7-5.7.8-2.1 1.5-4.2 1.8-6.4.3-2.5.3-5 .2-7.5-.5-6.4-3-11.7-8.5-15.2-3-1.9-6.4-2.6-10.1-2.9-5.4-.4-9.8 1.7-13.6 5.1-2 1.8-7.3 8.5-8.4 15.1-1.3 7.1-1.9 8.1 1.5 14.5z"/><path d="m329.9 478.3c-.4-.1-.8 0-1.2-.2-1.6-.8-3.2-1.8-4.9-2.5-2-.9-4.1-1.7-6.2-2.4-2.2-.8-2.6-2.7-.8-4.4.4-.4.9-.7 1.3-1.1 1-.8 1.4-1.8 1.1-3-.6-1.9-1.2-3.8-1.9-5.7-.8-2-.2-3 2.1-3.2 1.8-.2 3.5-.6 5.2-1.1.5-.1.9-.6 1.4-.9 1.4-.8 2.7-.3 3.2 1.2.5 1.6.9 3.2 1.4 4.8.3 1.1.9 1.7 2.2 1.5s2.6-.3 3.8-.3c1.8-.1 2.4.7 1.7 2.4-.8 1.9-1.8 3.9-2.8 5.7-1.1 1.9-2 3.7-2 6-.1 1.2-2.5 3.2-3.6 3.2zm-.3-3.3c.2-.2.7-.5 1-.9.7-1.4 1.2-2.9 1.8-4.3.7-1.5 1.4-3 2-4.6.1-.4 0-.8 0-1.2-.5 0-1-.1-1.4 0-.8.1-1.7.2-2.5.5-1.1.3-1.6-.3-1.9-1.2-.2-.7-.4-1.4-.6-2.1-.3-1.1-.5-2.2-.7-3.3-.2-.8-.6-1.2-1.5-1-1.8.4-3.6.9-5.4 1.4-.8.2-1 .7-.5 1.5.4.6.6 1.4.8 2.2.4 1.1.7 2.3 1.3 3.4.7 1.3.7 2-.5 2.9-.6.5-1.4 1-2 1.5-1 .8-1 .9.2 1.5 1 .5 2 .8 2.9 1.2 2.3.7 4.4 1.5 7 2.5z"/><path d="m342.6 483.2c-.5.6-.9 1.2-1.4 1.4-3.6 1.5-7.1 2.9-10.4 5-2.7 1.8-5.8 3-8.8 4.5-.8.4-1.5.1-1.8-.6-1-2-2-4-2.8-6.1-.4-1.1.5-2.1 1.8-2.5 2.1-.6 4.3-1.2 6.4-1.9 3.4-1.1 6.7-2.4 10.1-3.6.8-.3 1.6-.8 2.4-1.2 1-.5 2-.3 2.5.6.8 1.2 1.3 2.7 2 4.4zm-3.1-.6c-.1-1.1-.5-1.6-1.3-1.5-1 .2-2.1.5-3.1.8-3.7 1.3-7.4 2.6-11.1 3.8-1.1.4-2.2.5-3.2.9-.3.1-.8.7-.8 1 .4 1.1.9 2.2 1.4 3.2.3.7.8.6 1.4.3 1.6-.8 3.3-1.6 4.9-2.4 3.5-1.6 7-3.2 10.4-4.9.6-.3 1-.9 1.4-1.2z"/><path d="m445.1 158c-.3-3.1-.7-6.6-1.1-10-.1-.8-.1-1.7-.1-2.5 0-1.5.4-1.9 2-2 4.2-.4 7.9-1.9 11.2-4.6 2-1.7 4-3.4 6.1-4.9.5-.4 1.5-.2 2.2-.1.3.1.5.9.5 1.4-.4 3.5.3 6.9.5 10.3.1 1.2 0 2.3 0 3.5 0 1.5-.1 3 0 4.5.2 3.7.4 7.4.6 11 0 .7-.1 1.3-.3 2-.2.8-.8 1.1-1.6.8-1.6-.7-3.1-1.4-4.6-2.3-2-1.1-3.9-2.5-6-3.3-1.5-.6-3.4-.4-5.1-.4-.8 0-1.5.3-2.3.4-1.9.3-2.1-2.9-2-3.8zm18.7-20.8c-.1-.8-.5-.8-1-.4-2.5 2-5.1 4-7.6 6.1-1.4 1.2-1.8 1.5-4.6 2-1.1-.1-2.2.1-3.3.3-1 .1-1.3.7-1.2 1.8.3 2.9.5 5.8.7 8.7s.9 3.4 3.8 3.2c1-.1 2-.1 3 0 .5 0 1.1.3 1.5.6 2.5 1.5 5 3.1 7.6 4.5 1.1.6 1.7.2 1.6-1.1 0-.6-.1-1.1-.1-1.7 0-2.1 0-7.6 0-12.2.1-4.6-.2-10-.4-11.8z"/><path d="m475.2 151.8c.5.3 2.5 1.4 3.7 2.1 1.4.8 2.7 1.7 4.1 2.4.7.3 1 .7.7 1.4s-.7 1.2-1.6.7c-1.1-.6-2.3-1.1-3.4-1.8-1.4-.9-2.8-1.8-4.2-2.8-.3-.3-.8-.3-.8-1.2 0-.7.9-1.1 1.5-.8z"/><path d="m474.8 147.2c-.2-.1-1.1-.1-1-.7s.4-.6.7-.8c1.8-1.1 3.6-2.2 5.4-3.3.7-.4 1.4-.9 2 .1.6.9.1 1.8-.6 2.2-1.9 1-4 1.7-6 2.5 0 0-.1 0-.5 0z"/><path d="m196.9 332.3c-.8 0-1.5-1-1.1-1.7 3.1-4.8 6.3-9.6 9.4-14.4.1-.2.3-.5.5-.5.5 0 .9.1 1.4.2-.1.5 0 1.1-.3 1.5-.8 1.1-1.8 2.1-2.6 3.3-1.6 2.5-3.1 5-4.6 7.6-.3.6-.4 1.3-.5 1.9-.2 1.1-1.3 2.1-2.2 2.1z"/><path d="m200.2 338c-.5-.5-.9-.8-.9-1.1 0-.7 0-1.4.4-2 .7-1.2 1.7-2.2 2.4-3.4 1.4-2.2 2.6-4.4 3.9-6.6.2-.4.4-.9.8-1.1s1-.2 1.4 0c.2.1.3.7.4 1.1 0 .3-.2.6-.4.9-1.7 2.6-3.5 5.2-5.2 7.8-.4.6-.5 1.5-1 2.1-.5.7-1.1 1.4-1.8 2.3z"/><path d="m211.2 334.3c-.5.6-.7 1-1 1.3-1.6 2.2-3.3 4.3-4.9 6.6-.5.7-.7 1.5-1 2.3-.2.4-.3.9-.6 1.2-.6.5-1.4 1.1-2 .3-.3-.5-.4-1.7 0-2.1 2.7-2.8 4.5-6.2 6.6-9.4.3-.5 1-.9 1.5-.9.4-.1.8.4 1.4.7z"/><path d="m262.8 223.2c0 2 .5 7.7.7 8.2.4-.3 4.8-8.4 6.6-11.2 1.5-2.4 3.1-4.8 4.7-7.2.2-.4.8-.8 1.2-.8 1.4.1 2.8.3 4.1.6 1.5.4 1.9 1.6 1.3 3.1-1.8 3.9-9.8 19.6-11.9 23.6-.7 1.4-1.4 2.9-1.9 4.5-.2.6 0 1.4.2 2.1.3.9.1 1.5-.9 1.8-1.9.5-3.9 1.1-5.8 1.7-.7.2-1.3 0-1.6-.8-.4-1.1-.9-2.3-1.2-3.4-1.2-4.3-2.3-8.6-3.5-12.9-.4-1.6-1-3.1-1.5-4.6-.1-.4-.4-1-.2-1.3.4-3 1.5-10 1.7-10.4.4-1.1 1.2-1.3 2-.4 1.1 1.2 2.1 2.5 3.2 3.7.8.9 1.6 1.8 2.4 2.8 0 .3.2.7.4.9zm1.2 11.4c.6 2 1.2 4.1 1.8 6.1.1.3.4.5.5.8.3-.3.7-.5.8-.8.4-.9.6-1.8 1.1-2.7 2.1-4.2 5-7.9 6.7-12.3 1.2-3.2 2.8-6.3 4.2-9.5.1-.3.3-.8.2-1-.7-1.3-3-1.1-3.8.1-1.6 2.5-3.2 4.9-4.8 7.4-.5.8-.9 1.5-1.4 2.3-1.6 2.8-3.2 5.6-4.8 8.5-.2.3-.3.7-.5 1.1zm1 11.6s-1.1-3.5-1.3-4.2c-1.5-4.9-2.2-9.1-2.8-14.1-.1-1.1.1-2.5-.8-2.6s-3.3 1-3.7 1.2c-1.6.5-1.2 1.2-.7 2.9.3.9.6 1.8.8 2.7.9 3.2 1.7 6.4 2.6 9.5.4 1.4.6 4.1 1.1 5.4.4 1 1.7-.1 2.6-.2 1-.2 2.2-.6 2.2-.6zm-9.6-24c0 .5-.2 2.3-.1 2.5.7-.4 3.8-1.1 4.4-1.6.1-.1-.9-1.6-1.2-2-.5-.6-2.1-3.2-2.6-3.1s-.5 4.2-.5 4.2z"/><path d="m254 154.4c-.4.7-1.2 1.6-1.6 2.3.7.3 1.9.5 2.6.9.7.3 1.3.6 2 .8 1 .4 1.1 1.1.8 1.9-.3.9-1 .5-1.7.3-1.4-.5-2.7-1-4.1-1.5-1-.3-1.3.2-.9 1 .3.8.8 1.6 1.2 2.4.3.6 1.1 1.2.1 1.8-.8.5-2 0-2.4-.8-.5-1.2-1-2.4-1.4-3.6-.8-2-1.5-4.1-2.3-6.1-.4-1.1-.2-1.9.8-2.4 1.5-.8 3.6-1.8 4.5-2.1s3.4 3.1 2.4 5.1zm-1.8-.8c0-.2-.7-1.6-1.2-1.7-.9-.1-2.6 1-2.6 1s.8 2.4 1.7 2.2c.8 0 1.4-.9 2.1-1.5z"/><path d="m231.8 162.2c.1-2.1 2.9-5.7 4.9-6.1.4-.1 1.1.4 1.4.8.1.2-.3.9-.6 1.3-.2.2-.6.2-.9.4-1.8.9-2.9 2.8-2.6 4.5.4 2.2 2.2 4.1 4.2 4.3.8.1 3.5-1.7 3.4-2.5-.1-.6-.6-1.2-1-1.7-.4-.6-1.4-1.1-1.3-1.6.1-.9 3.1-2.1 3.7-2.1.5 0 1.2.6 1.4.9.2.4-1 .9-1.4 1-1.6.2.6 1.5.7 2.2s0 1.4-.2 2.1c-1 3-4.1 4.6-7.2 3.8-.4-.1-.9-.3-1.2-.5-1.4-1.2-3.4-4.6-3.3-6.8z"/><path d="m296.8 145.9c-.2.3-1.8 1.4-2.1 1-1.1-1.8-2.8-5.5-3.8-7.4-.5-.9-1.1-1.7-1.4-2.6-.2-.4 1.4-1.4 1.6-1.1.6.7 1.2 1.5 1.6 2.4.5 1 1 .9 1.6.2.8-.9 1.6-1.9 2.4-2.8.5-.5.9-1.1 1.5-1.5.3-.3 1.6.8 1.4 1.3s-.7.8-1.1 1.2c-.7.8-1.3 1.5-2 2.3-1.2 1.5-1.2 1.5.7 1.9 1.4.3 2.8.4 4.1.7 1.2.2.5 2.5-.3 2.4-1.2-.2-4.3-.5-5.5-.8-.8-.3.8 1.3 1.3 2.8z"/><path d="m260.2 156.6c.2-1.8.5-3.5.7-5.3.1-1.2 0-2.3.1-3.5.1-.6-.2-1.8.8-1.9 2.2 0 4.4 4.3 5.6 5.9.5.7.9 1.6 1.6 2.2.6.5.8 1 .3 1.6-.5.7-1.1.8-1.7.3s-1.1-1.2-1.8-1.8c-.4-.4-1.1-1-1.4-.8-.8.3-1.6.9-2 1.5-.4.8.6 4.1-1.1 4.2-1.6.2-1-2-1.1-2.4zm2.7-4.9c.3-.3 1.5-.3 1.6-.5 0-.2-1.7-2.9-1.8-2.7-.1.1 0 2.9.2 3.2z"/><path d="m277.7 140c.3.3.4 1.1.5 1.5 0 .3-3.5 1.8-4.8 2.4-.1.1.7 1.7.9 1.6.7-.2 1.7-.8 2.4-.9.6-.1 1 1.1.8 1.5-.2.3-.5.4-.8.6-1.7 1.2-1.7 1.2-.8 3.2.1.2.7 1.5.7 1.6-.2.7-1.5 1.8-2 .9-1.2-2.2-2.7-5.7-3.9-7.9-.3-.6-.5-1.3.3-1.7 1.8-.9 3.6-1.7 5.5-2.5.3-.1.6-.2 1.2-.3z"/><path d="m283.7 138.2c.9-.2 2.1 3.2 2.6 4.4.6 1.4 1.1 2.8 1.7 4.1.3.8.4 1.4-.3 1.9-.8.6-1.2-.1-1.7-.6-.2-.2-.4-.5-.5-.9-.9-2.5-1.7-4.9-2.6-7.4-.2-.6-.1-1.3.8-1.5z"/><path d="m666.4 140.8c-1-.2-1.7-.4-2.4-.6-1-.4-1.3.2-1.6.9-.3.8-.1 1.1.7 1.4.5.2 1 .7 1.2 1.2.4.8-.1 1.4-1 1.4-.6 0-1.2-.3-1.8-.3-.5 0-1 .2-1.5.4.2.5.2 1.2.5 1.4 1 .7 2.1 1.4 3.2 1.9.7.3 1.6.4 1.4 1.5-.2 1-1.3 1.5-2.3 1-1.9-.9-3.7-1.9-5.4-3-1-.6-1.2-1.6-.7-2.8 1.2-2.4 2.3-4.8 3.5-7.2.7-1.5 1.4-1.8 2.9-1.2 1.2.5 2.4 1.1 3.6 1.8.4.2.7.9.6 1.3.1.4-.6.7-.9.9z"/><path d="m655.9 138c-.5 1.9-1.8 3.7-3.8 4.8-2.3 1.2-5.1.7-6.8-1.3-.3-.4-.5-1.2-.4-1.7.8-2.3 1.7-4.6 2.7-6.8.2-.4.8-.8 1.3-.9 3.4-.8 6.9 2.1 7 5.9zm-7.1.6c-.3 1.2-.1 2.1 1.3 2.3 1.2.1 3-1.3 3.3-2.5.3-1.3-.5-2.8-1.9-3.3-.4-.1-1.1 0-1.4.3-1.1.8-1.5 1.9-1.3 3.2z"/><path d="m678.6 148.7c0 .2-.1.3 0 .5.7 3.2-.8 4.8-3.9 6.1-1.8.7-3.2.4-4.5-1-1.1-1.2-1.2-3-.5-4.5.9-2.1 2.6-3.4 4.4-4.6 1.5-1 4.1.3 4.5 2.1.1.4.1.9 0 1.4.1 0 .1 0 0 0zm-1.9 1.2c-.3-.7-.5-1.8-.9-1.9-.8-.1-1.9.1-2.6.6s-1.3 1.4-1.5 2.2c-.4 1.3.8 2.5 2.2 2.4 1.6-.1 2.8-1.5 2.8-3.3z"/><path d="m633 123.7v5.2c0 .8.3.9.9.4.8-.8 1.6-1.6 2.3-2.4 1-1.2 1.8-1.5 2.8-.8.7.5.9 1 .3 1.6-.1.1-.1.2-.2.2-2.6 1.5-4.3 3.9-6.4 5.9-.4.4-1.3.5-1.8.3-.3-.1-.6-1-.5-1.5.3-3.4 1.1-6.7.2-10.1-.1-.3-.1-.8.1-1 .3-.5.8-1 1.3-1.1.3-.1 1 .5 1.2.9.3.7.2 1.5.3 2.3-.3.1-.4.1-.5.1z"/><path d="m639 136.8c.3-1 .6-1.6.7-2.3.5-1.7.9-3.4 1.4-5.2.1-.2 0-.6.1-.6.5-.3 1-.6 1.6-.6.2 0 .7.8.7 1.2-.2 1.4-.6 2.7-.9 4.1-.2 1.1-.5 2.2-.6 3.2-.1 1.1-.9 1.3-1.6 1.2-.6 0-1-.6-1.4-1z"/><path d="m413.7 73.1c.3.8-.9 1.2-1.5 1.4-.4.1-.2 0-1-1.4s-.7-2.3-1.9-2.3c-1.3 0-2.8 0-3.8 1.4-.4.5-.7 1-1.1 1.5-.5.7-1.1 1-1.8.3-.6-.6-.4-1.1.1-1.7.4-.4.6-1.1 1-1.6.5-.7 4.2-7.6 5-7.7.9-.2 1.1.3 1.4 1 .6 2.1 1.3 4.1 2 6.2.2.6.6 1.2.9 1.8.3.3.4.4.7 1.1zm-4.9-6.8c-.3.5-1 2.2-1.1 2.5 0 .2 1.8.2 1.9-.1.1-.1-.5-1.7-.8-2.4z"/><path d="m424.7 66.2c-.2-1.8 0-2 1.8-2 1.2 0 2.3-.4 3.5-.2 1.9.2 3.2 1.1 3.3 3.4v.5c-.2 4.2-2.3 6.2-6.5 6-1 0-1.7-.8-1.6-1.9-.1-.5-.3-4.4-.5-5.8zm2.3 5s2.5-.1 3.2-.5c1-.6 1.3-3.9.5-4.4-1.5-1-2.9 0-3.9.2-.3 0 .2 4.7.2 4.7z"/><path d="m443.5 66.6c1.7-3.4 3.9-3.4 6.8-2 .6.3 1.2 1.6 1.1 2.4-.2 1.4-.1 4.4-1.4 5.8s-4.1 1.9-6 .6c-.4-.3-.8-.8-.9-1.3-.2-.9-.5-3.8.4-5.5zm2.4 4.9c.7.5 2-.3 2.9-1.6.9-1.4 1-2.6.3-3.2-1.3-1.1-3.3-.6-3.8 1-.1.6-.6 2.9.6 3.8z"/><path d="m420.5 65.1c.1-.4.4-.9.8-.9s1 .7 1 1c-.2 2.3-.7 8.2-.9 8.4-.7.5-1.7.5-2.4.6-.5 0-1.3-.8-1.5-1.5-.5-1.5-.7-3-.9-4.6-.1-.9-.2-1.8-.2-2.7s.4-1.4 1.3-1.4c1 0 .7.7.6 1.6-.1 1.3.4 2.6.5 3.9 0 .5.3 2.2 1 2.2.6 0 .3-1.6.4-2.1.1-.6 0-2 0-2 0-.1.2-1.7.3-2.5z"/><path d="m436.3 66.7c-.1-.3-.2-1.2-.1-1.5.2-.5.4-.6.8-.8.3-.1 1.2.5 1.3.9.4 2.1.7 4.2 1 6.3.1.8 0 1.7-1 1.8-1 0-1.4-.7-1.4-1.7 0-.3-.3-3.7-.6-5z"/><path d="m149 251.2c-.4.5-1.2.9-1.7 1.4-.6.6 1.9 3.8 3.1 2.8.3-.2 2.1-1.8 2.4-1.7.2.1.3.5.4.7v.4c-1.5 1.4-1.9 2.1-3.1 2.6-.9.4-1.9-.2-2.5-1s-1.3-1.5-1.9-2.3c-1.2-1.7-2.4-3.3-4.2-4.5-.8-.6-.6-1.1.1-1.6 1.2-.7 2.9-1.7 3.6-2.2.6-.4 1.5 1 1.3 1.2-.4.4-1.5.6-1.9 1-.9.6-1.1 1.2-.4 2 .6.7 1.1 1.6 1.6 1.7.6.1 1.3-.7 1.8-1.2.9-.8 1.8.2 1.4.7z"/><path d="m141.9 266c-.6-.1-3.7-4.1-4.8-6-.5-.9-.9-2.5-2.4-1.4-.5.4-1.2 1.6-1.9 1.7-.4.1-.7-.1-.9-.4s-.2-1.1 0-1.3c1.1-1 2.2-2 3.4-2.9 1-.8 2.1-1.5 3.2-2 .5-.3 1.4-.4 1.7-.2.7.4.3 1.1-.1 1.7-.7.9-2.4 1-2.4 1.9s1.7 2.7 2.4 3.5 2.9 2.7 3.5 3.5c.6.7-1.5 1.9-1.7 1.9z"/><path d="m157.2 248.5c0 .4.2 1.9.1 2.2-.2.5-1.6.6-1.8.2s-.2-2-.3-2.5c-.2-2.7-.8-3.3-3.5-3.8-.6-.1-1.3-.4-1.8-.7-.3-.2.1-1.5.5-1.5.9 0 1.8.1 2.6.3 1.4.4 1.7.1 1.5-1.3-.1-.5-.5-2.2-.5-2.7s1.6-1 1.8-.5c.3.6.3 2.4.2 3.1-.2 2.7 1.2 3.3 3.3 3.6.8.1 1 .2 1.9.4 1 .1.6 1.7 0 1.9-.7.2-1.3-.2-2.5-.5-1.8-.8-1.7-.3-1.5 1.8z"/><path d="m160.4 233.6c-.8.4-1.5.8-2.2 1-.6.2-1.3.3-1.9.1s-.8-.8-.1-1.3c2.2-1.4 4.4-2.9 6.6-4.3.3-.2.7-.4 1.1-.4.3 0 .6.2.8.4.1.1 0 .5-.1.8 0 .1-.1.2-.2.3-.7.9-1.9 1.7-1.9 2.6-.1.8 1 1.8 1.6 2.6.8 1.1 1.8 2.1 2.6 3.3.3.5.6 1.1.5 1.7 0 .3-.8.8-1.1.7-.5-.2-.9-.7-1.2-1.1-1.1-1.7-2.1-3.4-3.1-5.1-.5-.6-1-.9-1.4-1.3z"/></g><path d="m573.3 223.2c0 1.5.7 2.1 2 1.8 3.1-1 6.3-1.7 9.5-2 3.7-.4 7.4-1 11.1-1.6.6-.1 1.4-.4 1.6-.9.2-.4-.1-1.3-.5-1.8-3.7-5.9-8.4-11.1-12.8-16.5-.9-1.1-1.8-1.2-2.6 0-.7 1-1.1 2.2-1.6 3.3-2.5 5.3-4.8 10.6-6.4 16.2-.1.5-.3 1.1-.3 1.5z" fill="none"/><path d="m329.6 475c-2.5-.9-4.7-1.7-6.8-2.5-1-.4-2-.8-2.9-1.2-1.2-.6-1.2-.7-.2-1.5.7-.5 1.4-.9 2-1.5 1.1-1 1.1-1.6.5-2.9-.6-1.1-.9-2.3-1.3-3.4-.3-.7-.4-1.5-.8-2.2-.5-.8-.3-1.3.5-1.5 1.8-.5 3.6-1 5.4-1.4.8-.2 1.3.3 1.5 1 .3 1.1.5 2.2.7 3.3.2.7.3 1.4.6 2.1.3.9.8 1.4 1.9 1.2.8-.2 1.6-.3 2.5-.5.5-.1 1 0 1.4 0 0 .4.1.9 0 1.2-.6 1.5-1.4 3-2 4.6-.6 1.4-1.2 2.9-1.8 4.3-.5.4-1 .7-1.2.9z" fill="none"/><path d="m339.5 482.6c-.4.3-.8 1-1.4 1.2-3.5 1.7-6.9 3.3-10.4 4.9-1.7.8-3.3 1.6-4.9 2.4-.6.3-1.1.4-1.4-.3-.5-1.1-1-2.1-1.4-3.2-.1-.2.4-.9.8-1 1.1-.4 2.2-.5 3.2-.9 3.7-1.2 7.4-2.6 11.1-3.8 1-.3 2-.6 3.1-.8.9-.2 1.2.3 1.3 1.5z" fill="none"/><path d="m648.8 138.6c-.3-1.3.2-2.4 1.1-3.3.3-.3 1-.5 1.4-.3 1.4.5 2.2 2 1.9 3.3-.3 1.2-2.1 2.6-3.3 2.5s-1.4-1-1.1-2.2z" fill="none"/><path d="m676.7 149.9c-.1 1.8-1.2 3.2-2.9 3.3-1.4.1-2.6-1.1-2.2-2.4.2-.8.8-1.8 1.5-2.2.7-.5 1.8-.7 2.6-.6.5.1.7 1.2 1 1.9z" fill="none"/><path d="m573.3 223.2c.1-.4.2-1 .4-1.6 1.7-5.6 3.9-10.9 6.4-16.2.5-1.1.9-2.3 1.6-3.3.8-1.2 1.7-1.1 2.6 0 4.4 5.4 9.1 10.6 12.8 16.5.3.5.7 1.3.5 1.8s-1 .8-1.6.9c-3.7.6-7.4 1.2-11.1 1.6-3.2.4-6.4 1-9.5 2-1.4.4-2.1-.2-2.1-1.7zm8.2-2.2c3.5-.6 7-1.2 10.6-1.7.2 0 .3-.1.5-.1.7-.2 1-.3.4-1.1-1.2-1.6-2.3-3.4-3.6-5.1-1.8-2.4-3.7-4.7-5.6-6.9-.9-1-1.6-.9-2 .3-1.7 4.2-3.4 8.4-5 12.6-.2.6-.8 2.1-.5 2.7.2.5 2.2-.2 5.2-.7z" fill-rule="evenodd"/></svg>