<?xml version="1.0" encoding="UTF-8"?>
<svg width="91.44mm" height="91.44mm" clip-rule="evenodd" fill-rule="evenodd" image-rendering="optimizeQuality" shape-rendering="geometricPrecision" text-rendering="geometricPrecision" version="1.1" viewBox="0 0 9144 9144" xmlns="http://www.w3.org/2000/svg">
 <defs>
  <style type="text/css">.fil1 {fill:#FEFEFE;fill-rule:nonzero} .fil0 {fill:url(#a)}</style>
  <linearGradient id="a" x1="8595.4" x2="548.64" y1="8595.4" y2="548.63" gradientUnits="userSpaceOnUse">
   <stop stop-color="#48CFAE" offset="0"/>
   <stop stop-color="#4FC0E8" offset="1"/>
  </linearGradient>
 </defs>
 <polygon class="fil0" points="0 0 9144 0 9144 9144 0 9144"/>
 <path class="fil1" d="m2326 6335c-211-433-317-1099-317-1763s106-1330 317-1763c10-21 28-36 48-43 478-207 1339-311 2198-311 862 0 1727 105 2204 313 19 9 33 23 42 41 211 433 317 1099 317 1763s-106 1330-317 1763c-10 21-28 36-48 43-478 207-1339 311-2198 311-862 0-1727-105-2204-314-19-8-33-23-42-40zm-147-1763c0 626 95 1251 286 1661 461 191 1283 286 2107 286 825 0 1646-95 2107-286 191-410 286-1035 286-1661s-95-1251-286-1661c-461-191-1282-286-2107-286s-1646 95-2107 286c-191 410-286 1035-286 1661z"/>
 <path class="fil1" d="m4061 3622l1292 880c39 27 49 79 23 118-7 9-15 17-24 23l-1295 882c-39 26-91 16-118-22-10-15-14-32-14-48v-1766c0-47 37-85 84-85 20 0 38 7 52 18zm1095 950l-1062-723v1446l1062-723z"/>
</svg>
